<svg width="28" height="27" viewBox="0 0 28 27" fill="none" xmlns="http://www.w3.org/2000/svg">
<path d="M0.40332 1.35648C0.40332 1.12291 0.498683 0.898918 0.668428 0.733765C0.838174 0.568612 1.0684 0.47583 1.30846 0.47583H4.02386C4.22576 0.475884 4.42185 0.541615 4.58094 0.66257C4.74003 0.783525 4.85298 0.952759 4.90184 1.14336L5.635 3.99841H26.6522C26.7852 3.99853 26.9164 4.02712 27.0367 4.08216C27.1569 4.1372 27.2633 4.21733 27.3481 4.31686C27.4329 4.41639 27.4942 4.53288 27.5276 4.65805C27.5609 4.78321 27.5655 4.91399 27.5411 5.04109L24.8257 19.1314C24.7869 19.3332 24.6768 19.5155 24.5145 19.6467C24.3522 19.7779 24.1479 19.8498 23.9368 19.85H7.6444C7.43338 19.8498 7.22906 19.7779 7.06677 19.6467C6.90447 19.5155 6.79439 19.3332 6.75556 19.1314L4.04196 5.06751L3.31786 2.23712H1.30846C1.0684 2.23712 0.838174 2.14434 0.668428 1.97919C0.498683 1.81403 0.40332 1.59004 0.40332 1.35648ZM6.01878 5.7597L8.39567 18.0887H23.1856L25.5625 5.7597H6.01878ZM9.45467 19.85C8.49445 19.85 7.57355 20.2212 6.89457 20.8818C6.21558 21.5424 5.83413 22.4384 5.83413 23.3726C5.83413 24.3069 6.21558 25.2028 6.89457 25.8634C7.57355 26.5241 8.49445 26.8952 9.45467 26.8952C10.4149 26.8952 11.3358 26.5241 12.0148 25.8634C12.6938 25.2028 13.0752 24.3069 13.0752 23.3726C13.0752 22.4384 12.6938 21.5424 12.0148 20.8818C11.3358 20.2212 10.4149 19.85 9.45467 19.85ZM22.1266 19.85C21.1663 19.85 20.2454 20.2212 19.5665 20.8818C18.8875 21.5424 18.506 22.4384 18.506 23.3726C18.506 24.3069 18.8875 25.2028 19.5665 25.8634C20.2454 26.5241 21.1663 26.8952 22.1266 26.8952C23.0868 26.8952 24.0077 26.5241 24.6867 25.8634C25.3657 25.2028 25.7471 24.3069 25.7471 23.3726C25.7471 22.4384 25.3657 21.5424 24.6867 20.8818C24.0077 20.2212 23.0868 19.85 22.1266 19.85ZM9.45467 21.6113C9.93479 21.6113 10.3952 21.7969 10.7347 22.1272C11.0742 22.4575 11.2649 22.9055 11.2649 23.3726C11.2649 23.8397 11.0742 24.2877 10.7347 24.618C10.3952 24.9483 9.93479 25.1339 9.45467 25.1339C8.97456 25.1339 8.51411 24.9483 8.17462 24.618C7.83513 24.2877 7.6444 23.8397 7.6444 23.3726C7.6444 22.9055 7.83513 22.4575 8.17462 22.1272C8.51411 21.7969 8.97456 21.6113 9.45467 21.6113ZM22.1266 21.6113C22.6067 21.6113 23.0671 21.7969 23.4066 22.1272C23.7461 22.4575 23.9368 22.9055 23.9368 23.3726C23.9368 23.8397 23.7461 24.2877 23.4066 24.618C23.0671 24.9483 22.6067 25.1339 22.1266 25.1339C21.6465 25.1339 21.186 24.9483 20.8465 24.618C20.507 24.2877 20.3163 23.8397 20.3163 23.3726C20.3163 22.9055 20.507 22.4575 20.8465 22.1272C21.186 21.7969 21.6465 21.6113 22.1266 21.6113Z" fill="black"/>
</svg>
