<svg width="30" height="27" viewBox="0 0 30 27" fill="none" xmlns="http://www.w3.org/2000/svg">
<path fill-rule="evenodd" clip-rule="evenodd" d="M0.669434 0.895142H2.45824V24.9753H29.2904V26.5806H0.669434V0.895142ZM18.5575 6.51384C18.5575 6.30096 18.6518 6.0968 18.8195 5.94627C18.9872 5.79574 19.2147 5.71117 19.4519 5.71117H26.6072C26.8444 5.71117 27.0719 5.79574 27.2396 5.94627C27.4074 6.0968 27.5016 6.30096 27.5016 6.51384V12.9352C27.5016 13.1481 27.4074 13.3523 27.2396 13.5028C27.0719 13.6533 26.8444 13.7379 26.6072 13.7379C26.37 13.7379 26.1425 13.6533 25.9747 13.5028C25.807 13.3523 25.7128 13.1481 25.7128 12.9352V8.76132L19.2498 15.8521C19.1707 15.9388 19.0722 16.0096 18.9608 16.0601C18.8493 16.1105 18.7273 16.1395 18.6026 16.1451C18.4779 16.1507 18.3533 16.1328 18.2368 16.0926C18.1203 16.0523 18.0144 15.9907 17.9261 15.9115L13.2984 11.7585L6.75854 19.8286C6.61548 19.9918 6.40747 20.0989 6.17823 20.1274C5.94898 20.1559 5.71635 20.1036 5.52922 19.9814C5.3421 19.8592 5.21504 19.6766 5.17475 19.4721C5.13446 19.2676 5.18408 19.057 5.31319 18.8846L12.4684 10.0552C12.5444 9.96134 12.6421 9.88334 12.7549 9.82661C12.8676 9.76987 12.9928 9.73575 13.1216 9.7266C13.2505 9.71744 13.3801 9.73347 13.5014 9.77358C13.6227 9.81368 13.7329 9.87691 13.8243 9.95891L18.4914 14.1489L24.72 7.31651H19.4519C19.2147 7.31651 18.9872 7.23195 18.8195 7.08142C18.6518 6.93089 18.5575 6.72672 18.5575 6.51384Z" fill="black"/>
</svg>
