<svg width="830" height="720" viewBox="0 0 830 720" fill="none" xmlns="http://www.w3.org/2000/svg">
<g clip-path="url(#clip0_0_421)">
<path d="M675.97 347.498C675.97 357.616 675.556 367.63 674.729 377.543C674.077 385.28 673.188 392.948 672.062 400.546C670.865 408.591 669.398 416.54 667.661 424.391V424.401C666.525 429.568 665.278 434.693 663.92 439.776C659.978 454.552 655.077 469.039 649.248 483.14C647.98 486.208 646.672 489.255 645.322 492.28C640.215 503.739 634.497 514.899 628.194 525.709C610.517 556.067 588.451 583.484 562.753 607.018C559.972 609.561 557.153 612.062 554.295 614.52C493.621 666.631 417.043 695.122 337.985 694.997C151.319 694.997 0 539.419 0 347.498C0 155.578 151.319 3.15666e-06 337.985 3.15666e-06C414.321 -0.123749 488.429 26.4424 548.143 75.3366C550.942 77.617 553.705 79.9487 556.434 82.3318C569.749 93.942 582.175 106.588 593.603 120.158H593.612C646.84 183.242 676.09 263.985 675.97 347.498Z" fill="#F2F2F2"/>
<path d="M99.7726 407.524C67.5756 387.822 43.2746 351.001 46.4295 312.616C75.8654 341.582 114.318 358.909 154.983 361.532C170.67 362.485 188.214 361.866 199.761 372.824C206.946 379.643 210.29 389.908 210.839 399.944C211.387 409.982 209.432 419.965 207.486 429.817L208.156 432.23C170.688 432.375 131.97 427.227 99.7726 407.524Z" fill="#E6E6E6"/>
<path d="M47.2146 312.574C60.1151 341.571 81.574 365.651 108.543 381.394C114.341 384.731 120.505 387.597 127.055 388.926C133.449 390.172 140.051 389.634 146.175 387.369C151.926 385.374 157.585 382.65 163.707 382.128C170.16 381.578 176.135 384.137 180.829 388.621C186.572 394.107 190.056 401.387 193.222 408.628C196.737 416.668 200.264 425.077 207.004 430.858C207.82 431.559 206.715 432.821 205.9 432.121C194.174 422.062 192.26 405.215 182.887 393.368C178.513 387.84 172.493 383.634 165.341 383.744C159.086 383.841 153.249 386.646 147.443 388.717C141.346 390.891 135.239 391.913 128.803 390.956C122.219 389.977 115.933 387.353 110.078 384.183C96.852 376.894 84.8234 367.512 74.4324 356.381C62.5048 343.745 52.7674 329.104 45.6416 313.092C45.201 312.101 46.7769 311.59 47.2146 312.574Z" fill="white"/>
<path d="M99.5691 376.85C96.3857 381.144 91.8216 384.134 86.6917 385.288C81.5619 386.441 76.2004 385.682 71.5647 383.146C70.6285 382.629 71.365 381.109 72.3025 381.626C76.615 383.996 81.6094 384.703 86.3841 383.619C91.1589 382.535 95.3996 379.732 98.3407 375.716C98.9809 374.844 100.206 375.983 99.5691 376.85Z" fill="white"/>
<path d="M143.389 388.775C142.049 377.825 136.744 367.796 128.532 360.689C127.718 359.985 128.823 358.723 129.636 359.426C138.168 366.838 143.668 377.286 145.038 388.684C145.168 389.77 143.518 389.855 143.389 388.775Z" fill="white"/>
<path d="M64.5526 342.948C66.121 341.551 67.3273 339.775 68.0631 337.779C68.7989 335.784 69.0412 333.632 68.7682 331.517C68.625 330.433 70.275 330.349 70.4172 331.427C70.7082 333.765 70.4378 336.141 69.6296 338.348C68.8214 340.554 67.5 342.523 65.7809 344.083C65.6308 344.244 65.4268 344.34 65.2102 344.352C64.9936 344.364 64.7808 344.291 64.6149 344.147C64.453 343.996 64.3556 343.785 64.344 343.561C64.3323 343.336 64.4073 343.116 64.5526 342.948Z" fill="white"/>
<path d="M150.649 238.249C150.757 238.924 150.865 239.598 150.986 240.279C152.485 249.338 154.698 258.257 157.602 266.948C157.816 267.624 158.043 268.305 158.275 268.973C165.489 289.834 176.408 309.138 190.475 325.901C196.079 332.567 202.168 338.784 208.689 344.5C217.696 352.392 228.072 360.213 233.847 370.405C234.461 371.461 235.01 372.555 235.493 373.681L210.967 431.203C210.848 431.305 210.741 431.414 210.621 431.516L209.744 433.859C209.387 433.588 209.023 433.3 208.667 433.029C208.46 432.873 208.258 432.704 208.051 432.548C207.914 432.44 207.778 432.331 207.649 432.242C207.603 432.206 207.558 432.169 207.525 432.139C207.396 432.05 207.285 431.952 207.168 431.869C205.13 430.261 203.099 428.637 201.075 426.995C201.062 426.989 201.062 426.989 201.055 426.97C185.666 414.417 171.161 400.432 159.181 384.629C158.821 384.153 158.448 383.672 158.099 383.171C152.737 376.016 147.954 368.423 143.796 360.468C141.532 356.104 139.485 351.625 137.663 347.049C132.975 335.214 130.127 322.695 129.223 309.951C127.425 284.545 133.55 258.83 149.422 239.699C149.829 239.21 150.23 238.733 150.649 238.249Z" fill="#E6E6E6"/>
<path d="M151.304 238.699C144.624 269.836 147.657 302.346 159.971 331.611C162.647 337.864 165.89 343.968 170.341 349.084C174.718 354.036 180.304 357.694 186.52 359.676C192.28 361.644 198.393 362.971 203.587 366.344C209.062 369.899 212.333 375.641 213.455 382.127C214.829 390.062 213.347 398.031 211.634 405.773C209.733 414.368 207.626 423.265 209.621 432.054C209.863 433.119 208.242 433.442 208 432.379C204.528 417.089 212.865 402.453 212.319 387.191C212.064 380.07 209.72 372.985 203.945 368.646C198.894 364.852 192.591 363.478 186.743 361.537C180.602 359.499 175.127 356.534 170.548 351.786C165.864 346.929 162.382 340.943 159.563 334.788C153.272 320.781 149.162 305.844 147.383 290.524C145.259 273.051 146.058 255.334 149.745 238.138C149.973 237.074 151.531 237.641 151.304 238.699Z" fill="white"/>
<path d="M155.467 322.428C150.411 323.885 145.015 323.448 140.244 321.193C135.473 318.938 131.637 315.013 129.42 310.119C128.975 309.127 130.454 308.369 130.899 309.362C132.955 313.924 136.529 317.58 140.976 319.67C145.423 321.76 150.45 322.147 155.151 320.761C156.172 320.461 156.483 322.129 155.467 322.428Z" fill="white"/>
<path d="M183.472 359.073C188.814 349.501 190.451 338.21 188.056 327.452C187.818 326.386 189.439 326.063 189.677 327.127C192.149 338.327 190.422 350.073 184.841 360.022C184.309 360.97 182.942 360.016 183.472 359.073Z" fill="white"/>
<path d="M147.361 273.683C149.431 273.538 151.435 272.866 153.19 271.729C154.946 270.591 156.4 269.023 157.421 267.165C157.941 266.211 159.307 267.166 158.79 268.114C157.653 270.161 156.046 271.891 154.109 273.152C152.171 274.413 149.963 275.168 147.677 275.349C147.463 275.385 147.244 275.335 147.064 275.211C146.884 275.086 146.757 274.896 146.708 274.678C146.668 274.458 146.713 274.229 146.835 274.043C146.958 273.856 147.146 273.727 147.361 273.683Z" fill="white"/>
<path d="M234.125 80.54L275.493 578.433L192.757 584.829V86.8746C202.616 80.1675 216.768 79.1181 234.125 80.54Z" fill="#CCCCCC"/>
<path d="M438.324 80.54L396.956 578.433L479.692 584.829V86.8746C469.833 80.1675 455.681 79.1181 438.324 80.54Z" fill="#CCCCCC"/>
<path d="M467.304 605.407H204.265C200.047 605.402 196.003 603.678 193.021 600.611C190.038 597.545 188.361 593.387 188.356 589.05V94.1818C188.361 89.8453 190.039 85.6878 193.021 82.6214C196.003 79.555 200.047 77.8301 204.265 77.8252H467.304C471.522 77.8301 475.565 79.555 478.548 82.6214C481.53 85.6878 483.208 89.8453 483.213 94.1818V589.05C483.208 593.387 481.53 597.545 478.548 600.611C475.565 603.678 471.522 605.402 467.304 605.407ZM204.265 83.2548C201.447 83.258 198.746 84.4103 196.753 86.4588C194.761 88.5073 193.64 91.2848 193.637 94.1818V589.05C193.64 591.948 194.761 594.725 196.753 596.774C198.746 598.822 201.447 599.974 204.265 599.978H467.304C470.122 599.974 472.823 598.822 474.815 596.774C476.808 594.725 477.928 591.948 477.932 589.05V94.1818C477.928 91.2848 476.808 88.5073 474.815 86.4588C472.823 84.4103 470.121 83.2581 467.304 83.2549L204.265 83.2548Z" fill="#CCCCCC"/>
<path d="M480.572 160.175H190.997V165.605H480.572V160.175Z" fill="#CCCCCC"/>
<path d="M480.572 250.669H190.997V256.099H480.572V250.669Z" fill="#CCCCCC"/>
<path d="M284.967 80.54H279.686V327.59H284.967V80.54Z" fill="#CCCCCC"/>
<path d="M391.883 80.54H386.602V327.59H391.883V80.54Z" fill="#CCCCCC"/>
<path d="M513.578 620.339H166.792C160.489 620.339 154.445 617.765 149.988 613.183C145.531 608.6 143.027 602.386 143.027 595.906C143.027 589.425 145.531 583.211 149.988 578.628C154.445 574.046 160.489 571.472 166.792 571.472H513.578C519.881 571.472 525.926 574.046 530.383 578.628C534.839 583.211 537.343 589.425 537.343 595.906C537.343 602.386 534.839 608.6 530.383 613.183C525.926 617.765 519.881 620.339 513.578 620.339Z" fill="#CCCCCC"/>
<path d="M480.572 314.92H192.757V333.019H480.572V314.92Z" fill="#CCCCCC"/>
<path d="M285.786 372.521L285.421 372.34C265.801 362.595 240.107 362.603 202.11 372.371L201.704 372.476L201.583 372.064C197.563 358.513 193.01 343.165 201.564 335.614C201.684 313.456 220.588 295.464 243.808 295.464C267.023 295.464 285.925 313.447 286.052 335.599C298.777 345.602 292.712 360.384 285.992 372.161L285.786 372.521Z" fill="#2F2E41"/>
<path d="M406.379 325.074C406.028 326.87 405.297 328.564 404.24 330.038C403.182 331.512 401.823 332.729 400.258 333.605C398.694 334.48 396.961 334.992 395.183 335.105C393.405 335.218 391.625 334.928 389.967 334.257L320.63 405.896L314.443 383.652L383.308 317.125C384.59 314.337 386.822 312.129 389.581 310.92C392.34 309.71 395.434 309.584 398.278 310.564C401.122 311.543 403.517 313.562 405.01 316.236C406.503 318.911 406.991 322.055 406.379 325.074Z" fill="#FFB6B6"/>
<path d="M235.012 394.042C235.012 394.042 228.721 408.699 244.244 417.738C259.766 426.777 314.017 414.289 322.82 412.545C331.623 410.801 364.5 360.214 364.5 360.214L359.851 335.405L316.248 374.322L235.012 394.042Z" fill="#744FC6"/>
<path d="M223.563 475.096L224.443 492.289C224.443 492.289 221.845 507.52 223.982 510.807C226.102 514.077 283.966 514.49 283.966 514.49C283.966 514.49 287.789 493.299 291.082 474.752L223.563 475.096Z" fill="#FFB6B6"/>
<path d="M389.927 702.436L402.024 699.924L398.561 649.687L380.708 653.395L389.927 702.436Z" fill="#FFB6B6"/>
<path d="M407.255 637.061L418.501 631.862L403.912 583.795L387.314 591.469L407.255 637.061Z" fill="#FFB6B6"/>
<path d="M417.051 609.977L395.876 622.304L343.654 536.025C306.993 561.419 271.144 573.58 235.005 580.069C222.787 582.306 210.329 581.172 207.983 568.386C207.874 567.788 207.786 567.187 207.721 566.583C206.278 552.617 223.175 534.715 225.323 517.628L271.568 514.774L277.27 522.291L330.75 488.486C341.505 481.687 355.651 485.365 362.346 496.699C362.699 497.297 363.027 497.911 363.33 498.539L417.051 609.977Z" fill="#2F2E41"/>
<path d="M404.09 668.018L379.861 670.333L335.929 577.955C292.365 585.659 251.266 588.126 215.717 578.808C203.681 575.696 196.323 562.919 199.284 550.268C199.422 549.677 199.582 549.092 199.764 548.513C204.018 535.167 215.155 525.724 223.93 511.045L288.021 512.045L280.862 537.44L343.122 529.157C355.643 527.491 367.078 536.809 368.663 549.969C368.746 550.664 368.801 551.361 368.827 552.062L404.09 668.018Z" fill="#2F2E41"/>
<path d="M248.588 359.387C262.961 359.387 274.613 347.408 274.613 332.63C274.613 317.852 262.961 305.873 248.588 305.873C234.215 305.873 222.563 317.852 222.563 332.63C222.563 347.408 234.215 359.387 248.588 359.387Z" fill="#FFB6B6"/>
<path d="M233.331 369.047L257.193 371.933C258.2 372.055 259.144 372.496 259.895 373.196C260.645 373.895 261.165 374.818 261.381 375.836L265.176 393.69L288.832 422.332C288.832 422.332 297.327 438.707 294.141 457.267C290.956 475.826 289.556 489.616 289.556 489.616C289.556 489.616 226.099 514.079 223.976 510.803C221.852 507.528 221.163 492.652 221.163 492.652L212.668 395.489C212.668 395.489 222.225 379.113 227.534 379.113C230.96 378.994 230.521 371.065 233.331 369.047Z" fill="#744FC6"/>
<path d="M290.201 495.59C293.547 495.59 296.26 492.243 296.26 488.115C296.26 483.986 293.547 480.64 290.201 480.64C286.855 480.64 284.142 483.986 284.142 488.115C284.142 492.243 286.855 495.59 290.201 495.59Z" fill="#6C63FF"/>
<path d="M383.924 689.502L402.367 679.999L405.843 688.336L429.164 693.183C430.316 693.422 431.363 694.034 432.153 694.928C432.943 695.823 433.434 696.954 433.555 698.156C433.675 699.358 433.419 700.568 432.823 701.609C432.228 702.651 431.324 703.469 430.244 703.945L407.71 713.876L400.388 707.34L402.31 716.256L393.814 720L383.924 689.502Z" fill="#2F2E41"/>
<path d="M401.977 633.061L420.254 623.226L423.872 631.5L447.273 635.924C448.429 636.142 449.486 636.735 450.291 637.615C451.096 638.495 451.607 639.617 451.748 640.816C451.889 642.016 451.653 643.23 451.076 644.283C450.498 645.335 449.608 646.169 448.536 646.665L426.177 657.001L418.744 650.6L420.818 659.479L412.387 663.376L401.977 633.061Z" fill="#2F2E41"/>
<path d="M233.719 324.237C226.844 324.249 220.133 322.072 214.509 318.006L214.321 317.871V317.635C214.329 310.797 216.974 304.242 221.677 299.407C226.379 294.572 232.755 291.852 239.406 291.844H249.968C256.619 291.852 262.995 294.572 267.697 299.407C272.4 304.242 275.045 310.797 275.053 317.635C275.046 319.2 274.445 320.701 273.378 321.817C272.311 322.933 270.862 323.577 269.34 323.611L234.313 324.232C234.115 324.235 233.916 324.237 233.719 324.237Z" fill="#2F2E41"/>
<path d="M276.813 312.682C280.181 310.683 280.744 305.202 278.07 300.441C275.397 295.68 270.499 293.441 267.131 295.44C263.763 297.44 263.201 302.92 265.874 307.681C268.548 312.442 273.445 314.681 276.813 312.682Z" fill="#2F2E41"/>
<path d="M224.141 307.37C227.922 303.483 228.758 298.04 226.008 295.212C223.258 292.385 217.964 293.245 214.183 297.132C210.402 301.02 209.566 306.463 212.316 309.29C215.066 312.117 220.36 311.258 224.141 307.37Z" fill="#2F2E41"/>
<path d="M454.465 552.016H428.489C427.903 552.014 427.324 552.145 426.792 552.397C426.26 552.65 425.788 553.02 425.409 553.479C424.451 553.298 423.465 553.354 422.532 553.64C421.598 553.927 420.745 554.437 420.04 555.129C419.336 555.821 418.801 556.675 418.48 557.621C418.159 558.566 418.06 559.577 418.193 560.569C418.325 561.561 418.684 562.507 419.241 563.329C419.798 564.151 420.536 564.825 421.396 565.297C422.255 565.768 423.211 566.023 424.185 566.041C425.159 566.059 426.123 565.84 426.999 565.4L429.153 572.598C429.408 573.451 429.923 574.198 430.621 574.728C431.319 575.258 432.165 575.544 433.033 575.544H449.921C450.789 575.544 451.634 575.258 452.333 574.728C453.031 574.198 453.545 573.451 453.8 572.598L458.344 557.416C458.531 556.792 458.573 556.132 458.466 555.488C458.359 554.844 458.107 554.235 457.73 553.71C457.352 553.184 456.86 552.758 456.293 552.463C455.726 552.169 455.1 552.016 454.465 552.016ZM424.313 564.233C423.146 564.233 422.027 563.756 421.202 562.907C420.376 562.059 419.913 560.908 419.913 559.708C419.913 558.508 420.376 557.357 421.202 556.508C422.027 555.66 423.146 555.183 424.313 555.183C424.394 555.183 424.469 555.203 424.548 555.207C424.373 555.936 424.394 556.699 424.61 557.416L426.468 563.628C425.814 564.019 425.071 564.228 424.313 564.233Z" fill="#3F3D56"/>
<path d="M338.471 532.372C336.697 532.54 334.909 532.307 333.232 531.688C331.555 531.07 330.031 530.08 328.766 528.79C327.502 527.5 326.528 525.941 325.913 524.222C325.298 522.503 325.056 520.667 325.206 518.842L238.564 471.104L257.515 458.629L339.258 507.368C342.224 507.83 344.921 509.395 346.839 511.765C348.758 514.136 349.764 517.147 349.667 520.229C349.569 523.311 348.376 526.25 346.313 528.488C344.249 530.726 341.459 532.107 338.471 532.372Z" fill="#FFB6B6"/>
<path d="M225.044 383.376C225.044 383.376 209.582 381.386 205.614 399.268C201.646 417.149 228.847 466.999 232.997 475.169C237.147 483.339 293.714 501.206 293.714 501.206L315.495 489.509L266.725 457.729L225.044 383.376Z" fill="#744FC6"/>
<path d="M334.024 309.491H339.305C341.873 309.491 344.335 310.54 346.151 312.406C347.967 314.273 348.987 316.805 348.987 319.445H324.342C324.342 316.805 325.362 314.273 327.178 312.406C328.994 310.54 331.456 309.491 334.024 309.491Z" fill="#CCCCCC"/>
<path d="M166.565 123.765C195.459 123.765 218.883 99.6819 218.883 69.9736C218.883 40.2653 195.459 16.182 166.565 16.182C137.67 16.182 114.246 40.2653 114.246 69.9736C114.246 99.6819 137.67 123.765 166.565 123.765Z" fill="#FF6584"/>
<path d="M326.752 67.1703C312.906 52.2365 296.825 38.6129 277.789 31.4138C272.486 29.3999 266.988 27.9793 261.389 27.1765C261.344 27.1702 261.301 27.1796 261.257 27.1758C261.166 27.1517 261.073 27.1331 260.98 27.12C253.15 26.0944 245.202 26.5877 237.548 28.5745C233.805 29.5401 230.154 30.8479 226.638 32.4822C223.109 34.2521 219.69 36.2442 216.4 38.4473C209.437 42.733 201.77 45.6737 193.778 47.1244C189.766 47.867 185.703 48.277 181.627 48.3505C178.091 48.4235 174.756 48.5498 171.406 49.8633C167.827 51.247 164.612 53.4716 162.018 56.3597C159.423 59.2477 157.522 62.7192 156.464 66.4971C156.383 66.8335 156.407 67.1879 156.534 67.509C156.661 67.8301 156.884 68.1015 157.171 68.2838C158.078 68.9511 158.961 69.7083 159.913 70.3029C160.76 70.7015 161.665 70.9553 162.592 71.054C164.106 71.3825 165.622 71.7013 167.139 72.0105C172.731 73.1496 178.346 74.1579 183.984 75.0354C195.392 76.8111 206.862 78.0618 218.393 78.7877C241.494 80.2264 264.674 79.5101 287.649 76.6477C300.561 75.0397 313.386 72.7591 326.073 69.8147C326.33 69.7375 326.563 69.5933 326.75 69.3962C326.937 69.1991 327.071 68.9557 327.139 68.6897C327.207 68.4236 327.208 68.1439 327.14 67.8777C327.072 67.6115 326.939 67.3678 326.752 67.1703Z" fill="#E6E6E6"/>
<path d="M169.048 103.136C163.745 101.122 158.247 99.7014 152.648 98.8986C152.603 98.8923 152.56 98.9017 152.515 98.8979C152.424 98.8738 152.332 98.8552 152.239 98.8421C144.408 97.8165 136.46 98.3098 128.807 100.297C125.064 101.262 121.413 102.57 117.897 104.204C114.368 105.974 110.949 107.966 107.659 110.169C100.696 114.455 93.0287 117.396 85.0365 118.846C81.0249 119.589 76.9617 119.999 72.8862 120.073C69.3499 120.146 66.015 120.272 62.6645 121.585C59.0856 122.969 55.8707 125.194 53.2765 128.082C50.6823 130.97 48.7805 134.441 47.7229 138.219C47.6414 138.555 47.6659 138.91 47.7931 139.231C47.9202 139.552 48.1432 139.823 48.4301 140.006C49.3364 140.673 50.2199 141.43 51.1722 142.025C52.0193 142.424 52.924 142.677 53.8506 142.776C55.3646 143.104 56.8804 143.423 58.3982 143.733C63.9897 144.872 69.6045 145.88 75.2424 146.757C86.6507 148.533 98.1205 149.784 109.652 150.51C132.753 151.948 155.933 151.232 178.908 148.37C191.82 146.762 204.645 144.481 217.332 141.537C217.589 141.459 217.822 141.315 218.009 141.118C218.196 140.921 218.33 140.678 218.398 140.412C218.466 140.146 218.467 139.866 218.399 139.6C218.331 139.334 218.198 139.09 218.011 138.892C204.165 123.959 188.084 110.335 169.048 103.136Z" fill="#E6E6E6"/>
<path d="M546.341 504.143L506.107 449.801L474.361 468.256L541.633 550.39L546.341 504.143Z" fill="#3F3D56"/>
<path d="M639.02 415.804C639.914 438.577 643.345 461.171 649.248 483.14C647.98 486.208 646.672 489.255 645.322 492.28C640.215 503.739 634.497 514.899 628.194 525.709C610.517 556.067 588.451 583.484 562.753 607.018C559.972 609.561 557.153 612.062 554.295 614.52C538.003 591.426 529.21 565.943 525.734 539.718C525.293 536.387 524.933 533.021 524.66 529.673V529.655C523.992 521.517 523.778 513.347 524.017 505.185C524.026 504.533 524.044 503.873 524.07 503.212C524.378 494.488 525.144 485.747 526.297 477.086V477.077C526.429 476.082 526.561 475.086 526.71 474.091C527.133 471.105 527.608 468.118 528.128 465.15C531.15 448.031 535.368 431.159 540.749 414.663V414.654C540.899 414.175 541.048 413.704 541.216 413.234C541.797 411.442 542.386 409.668 542.994 407.894C543.031 407.755 543.078 407.619 543.134 407.487C543.918 405.171 544.719 402.872 545.537 400.592C545.757 399.958 545.986 399.325 546.224 398.691C547.148 396.148 548.09 393.623 549.049 391.135C549.348 390.339 549.657 389.542 549.965 388.755C550.202 388.149 550.431 387.542 550.678 386.945V386.936C552.077 383.379 553.494 379.892 554.929 376.475C558.951 366.864 563.088 357.824 567.119 349.489L567.128 349.48C583.86 314.975 599.069 292.568 599.069 292.568L656.183 311.572C649.371 323.997 644.099 342.322 641.212 363.941C638.987 381.125 638.254 398.478 639.02 415.795L639.02 415.804Z" fill="#3F3D56"/>
<path d="M544.094 410.274C543.759 409.469 543.381 408.682 542.994 407.894C540.986 403.898 538.401 400.236 535.327 397.035C534.87 396.555 534.394 396.076 533.901 395.623C528.6 390.603 522.153 387.037 515.156 385.256C508.159 383.475 500.839 383.536 493.871 385.434L493.836 385.452L493.572 385.524L493.634 385.832C493.898 387.266 494.281 388.673 494.778 390.04C494.91 390.411 495.06 390.764 495.209 391.117C495.271 391.28 495.35 391.424 495.421 391.587C495.421 391.587 495.412 391.596 495.429 391.596C495.429 391.605 495.438 391.614 495.438 391.624C495.605 391.958 495.764 392.302 495.94 392.628C495.579 392.275 495.236 391.913 494.901 391.542C494.576 391.198 494.276 390.836 493.977 390.474C492.951 389.244 492.024 387.931 491.205 386.547L491.064 386.303L490.817 386.402C487.496 387.585 484.327 389.181 481.382 391.153L481.065 391.37C478.816 392.888 476.282 393.903 473.627 394.349C470.972 394.795 468.255 394.662 465.653 393.958C461.551 392.871 457.275 392.672 453.094 393.375C448.914 394.078 444.921 395.666 441.369 398.04C439.017 399.617 436.89 401.523 435.05 403.705C434.891 403.895 434.733 404.094 434.574 404.284C434.24 404.7 433.923 405.125 433.615 405.56C430.306 410.106 428.276 415.5 427.744 421.152L427.727 421.36L427.894 421.478C430.872 423.576 434.24 425.018 437.787 425.713C435.559 426.033 433.303 426.09 431.063 425.885H431.054C430.037 425.798 429.027 425.653 428.026 425.45L427.841 425.414H427.832L427.604 425.369L427.639 425.803C427.902 431.333 429.594 436.69 432.541 441.323L432.629 441.45C432.662 441.496 432.691 441.544 432.717 441.595C433.966 443.558 435.005 445.655 435.816 447.848C437.873 453.297 438.326 459.248 437.118 464.96C435.751 471.07 436.205 477.461 438.422 483.301C440.639 489.141 444.515 494.159 449.546 497.701C453.965 500.827 459.115 502.686 464.465 503.086C465.196 503.149 465.935 503.185 466.674 503.185C470.907 503.198 475.095 502.302 478.97 500.552L479.111 500.497L479.146 500.335C479.891 497.862 480.938 495.496 482.262 493.294C481.829 495.03 481.61 496.814 481.611 498.606V499.203L482.112 498.905C482.544 498.642 482.984 498.362 483.38 498.099C485.757 496.503 487.91 494.579 489.779 492.38C490.509 491.511 491.249 490.67 492.023 489.828L492.032 489.819C493.537 488.172 495.13 486.561 496.785 485.023C500.305 481.772 504.073 478.816 508.051 476.182C512.026 473.557 516.183 471.234 520.488 469.232H520.496C520.981 468.996 521.474 468.77 521.958 468.553C524.101 467.593 526.165 466.455 528.128 465.15C528.198 465.105 528.26 465.069 528.321 465.024C536.83 459.296 543.085 450.649 545.973 440.623C548.862 430.597 548.196 419.843 544.094 410.274Z" fill="#744FC6"/>
<path opacity="0.15" d="M438.568 477.809C438.328 478.909 438.146 480.022 438.023 481.142C436.384 475.818 436.147 470.143 437.335 464.694C437.518 463.86 437.655 463.017 437.763 462.169C439.389 467.214 439.667 472.615 438.568 477.809Z" fill="black"/>
<path opacity="0.15" d="M439.234 438.554C436.627 438.927 433.983 438.94 431.372 438.593C430.689 437.267 430.098 435.893 429.606 434.48C432.513 436.497 435.789 437.883 439.234 438.554Z" fill="black"/>
<path opacity="0.15" d="M431.163 425.594C430.201 428.124 429.562 430.772 429.261 433.472C428.458 430.901 427.984 428.233 427.851 425.537L427.829 425.102L428.245 425.185C429.21 425.371 430.184 425.508 431.163 425.594Z" fill="black"/>
<path opacity="0.15" d="M441.596 397.771C445.144 395.394 449.134 393.803 453.313 393.099C457.491 392.396 461.767 392.595 465.866 393.684C468.469 394.392 471.187 394.527 473.844 394.082C476.501 393.637 479.037 392.621 481.287 391.1L481.604 390.885C484.547 388.908 487.714 387.309 491.035 386.123L491.288 386.033L491.427 386.268C492.74 388.5 494.331 390.546 496.159 392.354C495.048 390.227 494.27 387.934 493.854 385.558L493.794 385.244L494.095 385.163C500.63 383.384 507.481 383.22 514.09 384.682C520.698 386.145 526.877 389.193 532.122 393.578C537.366 397.963 541.528 403.561 544.268 409.915C547.008 416.268 548.248 423.198 547.887 430.139C546.501 424.48 544.037 419.161 540.637 414.489C537.236 409.818 532.968 405.886 528.08 402.922C523.191 399.959 517.779 398.022 512.157 397.225C506.535 396.428 500.815 396.786 495.328 398.278L495.028 398.36L495.088 398.673C495.504 401.049 496.281 403.342 497.392 405.469C495.564 403.661 493.973 401.615 492.66 399.383L492.522 399.148L492.268 399.238C488.947 400.424 485.781 402.023 482.838 404L482.52 404.215C480.271 405.736 477.735 406.752 475.078 407.197C472.421 407.642 469.702 407.507 467.1 406.8C460.286 404.982 453.07 405.65 446.682 408.691C440.294 411.732 435.13 416.956 432.069 423.474C430.707 422.801 429.386 422.043 428.115 421.203L427.942 421.09L427.962 420.882C428.4 416.224 429.854 411.727 432.214 407.726C434.574 403.725 437.781 400.322 441.596 397.771Z" fill="black"/>
<path d="M768.81 166.546L767.974 165.976L767.366 166.79C762.666 172.875 758.927 179.682 756.285 186.961C756.649 178.575 758.076 170.273 760.527 162.265L760.791 161.424L760.034 160.98C750.186 155.247 739.693 150.774 728.788 147.66L727.6 147.334C719.243 144.976 711.463 140.834 704.767 135.177C698.071 129.52 692.611 122.475 688.741 114.503C679.748 96.2051 665.542 81.1624 648.018 71.3818C630.495 61.6011 610.486 57.5477 590.664 59.7625H590.655C590.444 59.7806 590.224 59.8077 590.012 59.8349C589.651 59.8711 589.299 59.9163 588.947 59.9616C588.226 60.0611 587.521 60.1606 586.817 60.2692C586.219 60.3597 585.611 60.4593 585.013 60.5679C584.696 60.6131 584.388 60.6674 584.08 60.7308C583.772 60.7851 583.455 60.8393 583.147 60.9027H583.138C577.229 62.052 571.436 63.7637 565.834 66.0156H565.825V66.0246L564.408 66.5947C562.947 67.2101 561.498 67.8617 560.06 68.5494C559.734 68.7033 559.418 68.8662 559.092 69.02C559.004 69.0652 558.907 69.1105 558.819 69.1648C557.895 69.6173 556.98 70.0878 556.073 70.5856C555.941 70.6489 555.809 70.7213 555.677 70.7937L554.832 71.2552C552.975 72.2868 551.15 73.3818 549.357 74.5402C549.208 74.6306 549.067 74.7211 548.917 74.8207C548.759 74.9293 548.592 75.0379 548.433 75.1465C548.336 75.2008 548.239 75.2732 548.143 75.3365C547.87 75.5084 547.606 75.6894 547.342 75.8795C546.814 76.2324 546.286 76.5944 545.766 76.9654C545.229 77.3364 544.701 77.7256 544.173 78.1147L543.645 78.5038L543.742 79.1735C543.83 79.7255 543.909 80.2775 544.006 80.8205C544.094 81.3634 544.182 81.8974 544.279 82.4313C544.428 83.3272 544.596 84.214 544.763 85.0737C544.877 85.6438 544.983 86.2049 545.106 86.7569C545.221 87.327 545.344 87.8971 545.476 88.4672C545.731 89.6437 546.004 90.7839 546.294 91.906C546.435 92.4671 546.585 93.0282 546.743 93.5802C546.831 93.915 546.919 94.2498 547.016 94.5756C547.087 94.8018 547.157 95.0281 547.227 95.2543C547.245 95.3267 547.263 95.4082 547.289 95.4896C547.308 95.5663 547.332 95.6418 547.359 95.7158C547.456 96.0507 547.553 96.3765 547.65 96.6932C547.703 96.8651 547.755 97.0371 547.817 97.1999C547.94 97.5891 548.072 97.9873 548.204 98.3673C548.345 98.8017 548.495 99.2361 548.644 99.6614C548.68 99.77 548.715 99.8695 548.75 99.9781C548.776 100.06 548.803 100.141 548.838 100.222C548.873 100.313 548.908 100.413 548.944 100.503C549.093 100.91 549.243 101.326 549.401 101.734C549.454 101.879 549.507 102.032 549.569 102.177C550.995 105.864 552.748 109.408 554.806 112.765C552.526 110.756 550.331 108.626 548.222 106.376C544.965 102.897 541.964 99.1731 539.244 95.2362C539.024 94.9285 538.804 94.6118 538.602 94.2951C538.188 93.6888 537.783 93.0825 537.387 92.4671C536.965 91.8336 536.56 91.173 536.164 90.5215C535.9 90.0871 535.635 89.6437 535.38 89.2093C535.125 88.793 534.887 88.3858 534.659 87.9695L533.972 86.7569H533.963V86.7659L532.995 87.7432C532.608 88.1324 532.221 88.5215 531.842 88.9106C520.012 101.148 511.443 116.309 506.96 132.936L506.828 133.434L506.696 133.95C506.44 134.873 506.185 135.769 505.912 136.683V136.692C505.648 137.597 505.367 138.502 505.067 139.388C504.794 140.23 504.513 141.063 504.214 141.895C504.117 142.176 504.011 142.456 503.897 142.737C503.712 143.28 503.509 143.814 503.307 144.357C503.21 144.601 503.113 144.854 503.017 145.099C502.779 145.696 502.541 146.293 502.304 146.881C502.268 146.972 502.224 147.071 502.18 147.162C502.11 147.343 502.031 147.524 501.96 147.696C501.775 148.13 501.582 148.574 501.397 149.008C501.265 149.288 501.142 149.578 501.019 149.859C500.966 149.985 500.904 150.112 500.851 150.239C500.526 150.963 500.191 151.678 499.839 152.383C499.443 153.216 499.038 154.049 498.607 154.863C498.228 155.623 497.832 156.365 497.419 157.107C496.706 158.419 495.958 159.723 495.183 160.989C494.884 161.478 494.585 161.967 494.276 162.455C494.206 162.573 494.136 162.691 494.065 162.799C493.81 163.225 493.546 163.632 493.273 164.048C493.088 164.329 492.903 164.609 492.719 164.881C492.41 165.369 492.085 165.84 491.75 166.301C491.662 166.446 491.566 166.582 491.469 166.718C490.976 167.424 490.483 168.111 489.981 168.799C489.964 168.808 489.964 168.817 489.955 168.826C489.937 168.826 489.937 168.835 489.928 168.844C489.708 169.143 489.488 169.442 489.259 169.731C488.96 170.157 488.635 170.573 488.309 170.98C487.781 171.668 487.226 172.365 486.663 173.043C486.645 173.061 486.637 173.079 486.619 173.089C483.703 176.611 480.544 179.914 477.166 182.971C477.104 183.025 477.06 183.079 476.999 183.124C476.523 183.55 476.048 183.975 475.555 184.391C475.353 184.563 475.15 184.735 474.948 184.907C474.613 185.197 474.27 185.486 473.936 185.749C473.896 185.79 473.852 185.827 473.804 185.857C473.504 186.111 473.214 186.346 472.915 186.581C472.554 186.88 472.193 187.16 471.823 187.441C470.081 188.798 468.291 190.08 466.454 191.287C466.181 191.477 465.891 191.667 465.609 191.848C465.442 191.957 465.275 192.065 465.116 192.156C464.448 192.581 463.779 192.997 463.11 193.396C462.441 193.803 461.754 194.192 461.076 194.572C459.624 195.386 458.19 196.237 456.79 197.124C456.086 197.576 455.382 198.029 454.686 198.49C451.923 200.336 449.262 202.312 446.703 204.418C444.145 206.524 441.692 208.763 439.354 211.123C439.063 211.413 438.773 211.712 438.483 212.019C437.902 212.607 437.338 213.205 436.801 213.802C435.939 214.716 435.111 215.657 434.293 216.607C429.977 221.643 426.156 227.105 422.886 232.914C421.244 235.815 419.752 238.803 418.415 241.864C417.403 244.154 416.478 246.498 415.642 248.869C415.088 250.452 414.568 252.051 414.084 253.665C413.847 254.47 413.618 255.285 413.398 256.099C412.65 258.859 412.025 261.646 411.514 264.443C411.1 266.687 410.766 268.934 410.511 271.184C410.379 272.316 410.273 273.447 410.176 274.569C409.95 277.327 409.834 280.088 409.829 282.851C409.813 291.141 410.793 299.402 412.746 307.446C413.178 309.219 413.656 310.984 414.181 312.739C414.445 313.617 414.727 314.486 415.008 315.355C415.721 317.527 416.511 319.677 417.376 321.807C417.895 323.083 418.441 324.35 419.013 325.608C422.649 333.604 427.289 341.077 432.814 347.833C433.721 348.946 434.657 350.041 435.622 351.118C435.631 351.118 435.622 351.127 435.622 351.127C438.017 353.813 440.553 356.363 443.218 358.765H443.227C444.292 359.733 445.374 360.671 446.474 361.579C446.483 361.57 446.483 361.579 446.483 361.579C447.592 362.502 448.71 363.389 449.854 364.249C450.426 364.674 451.007 365.1 451.597 365.525C452.75 366.366 453.927 367.178 455.127 367.959H455.135C456.332 368.755 457.547 369.516 458.779 370.24C461.252 371.697 463.787 373.063 466.393 374.303L466.833 374.511L467.282 374.303C471.459 372.37 475.765 370.746 480.167 369.443C481.136 369.154 482.112 368.891 483.081 368.638C485.528 368.013 487.992 367.489 490.474 367.063C488.056 368.311 485.721 369.722 483.486 371.289C481.752 372.493 480.044 373.805 478.328 375.253C477.756 375.733 477.184 376.23 476.611 376.737L475.186 378.004L476.972 378.61C477.624 378.828 478.275 379.045 478.926 379.244C479.815 379.533 480.695 379.796 481.558 380.04C483.442 380.583 485.337 381.063 487.244 381.479C487.71 381.579 488.168 381.678 488.635 381.778C489.541 381.959 490.456 382.14 491.372 382.302C491.409 382.312 491.448 382.318 491.486 382.321C492.437 382.483 493.396 382.637 494.347 382.773C496.116 383.035 497.885 383.244 499.654 383.397C499.848 383.425 500.042 383.434 500.244 383.443C500.675 383.479 501.098 383.515 501.529 383.542C502.48 383.606 503.439 383.651 504.398 383.687C504.469 383.687 504.53 383.696 504.601 383.696C505.085 383.714 505.569 383.732 506.053 383.741C506.053 383.741 506.053 383.75 506.062 383.741C506.546 383.75 507.03 383.759 507.514 383.759H510.19C510.692 383.759 511.193 383.768 511.704 383.768C512.408 383.768 513.121 383.778 513.825 383.787C514.01 383.787 514.203 383.796 514.397 383.796C515.524 383.814 516.65 383.841 517.777 383.868C517.847 383.868 517.918 383.877 517.988 383.877C519.115 383.913 520.241 383.949 521.368 384.004C521.615 384.013 521.861 384.022 522.116 384.04C523.199 384.085 524.281 384.14 525.364 384.203C525.672 384.221 525.989 384.248 526.306 384.266C527.124 384.311 527.952 384.366 528.77 384.429C529.254 384.456 529.73 384.492 530.214 384.538C532.168 384.692 534.113 384.863 536.067 385.063C536.718 385.117 537.37 385.189 538.021 385.262C539.764 385.452 541.512 385.66 543.267 385.886C544.05 385.977 544.833 386.085 545.617 386.194C545.705 386.203 545.793 386.212 545.881 386.23C546.849 386.366 547.808 386.501 548.776 386.646C549.41 386.737 550.044 386.836 550.678 386.936C551.329 387.035 551.98 387.135 552.632 387.253C552.984 387.307 553.336 387.37 553.697 387.434C554.542 387.569 555.395 387.714 556.249 387.877C556.326 387.885 556.402 387.897 556.478 387.913C558.291 388.239 560.113 388.583 561.926 388.954C562.991 389.162 564.047 389.379 565.104 389.605C565.931 389.777 566.758 389.958 567.586 390.139C567.727 390.166 567.867 390.203 568.008 390.239C568.04 390.248 568.072 390.255 568.105 390.257C569.355 390.538 570.614 390.827 571.863 391.135C576.203 392.166 580.536 393.313 584.863 394.574C585.858 394.854 586.853 395.153 587.847 395.451C588.27 395.578 588.683 395.705 589.097 395.831C589.96 396.094 590.813 396.356 591.676 396.637C592.433 396.872 593.199 397.116 593.956 397.37C594.431 397.524 594.906 397.677 595.381 397.84C596.121 398.076 596.86 398.32 597.591 398.582C598.216 398.782 598.832 398.99 599.448 399.216C600.328 399.515 601.217 399.822 602.097 400.148C602.352 400.238 602.616 400.329 602.872 400.429C603.945 400.809 605.019 401.198 606.093 401.605C607.14 401.994 608.188 402.392 609.226 402.79C609.948 403.071 610.67 403.342 611.383 403.632C612.184 403.949 612.985 404.265 613.777 404.591C614.921 405.053 616.074 405.523 617.218 406.003C618.275 406.437 619.322 406.881 620.378 407.342C620.572 407.424 620.774 407.505 620.968 407.596C621.883 407.985 622.799 408.392 623.705 408.799C624.295 409.053 624.876 409.315 625.457 409.578C627.992 410.718 630.524 411.897 633.053 413.116H633.061C634.646 413.885 636.256 414.618 637.876 415.315C638.255 415.478 638.633 415.641 639.02 415.794C639.663 416.075 640.314 416.337 640.965 416.609C641.388 416.781 641.81 416.953 642.242 417.116C642.867 417.369 643.5 417.613 644.134 417.849C644.803 418.102 645.463 418.356 646.141 418.591C646.378 418.681 646.616 418.763 646.863 418.853C647.646 419.125 648.429 419.396 649.221 419.659C649.301 419.686 649.38 419.713 649.468 419.74C650.295 420.012 651.123 420.283 651.959 420.536C652.025 420.562 652.093 420.583 652.161 420.6C653.059 420.88 653.974 421.152 654.881 421.414C656.219 421.794 657.565 422.156 658.912 422.491C659.158 422.554 659.405 422.618 659.651 422.672C660.373 422.853 661.086 423.025 661.808 423.188C662.574 423.369 663.348 423.532 664.114 423.695C664.888 423.858 665.663 424.02 666.429 424.165C666.842 424.247 667.256 424.328 667.661 424.401L668.744 424.591C669.492 424.726 670.24 424.844 670.997 424.971C671.018 424.97 671.039 424.973 671.058 424.98C671.912 425.115 672.757 425.242 673.611 425.351C674.429 425.468 675.248 425.568 676.067 425.667C676.234 425.686 676.41 425.704 676.586 425.722C677.264 425.803 677.941 425.885 678.619 425.948C678.813 425.966 679.006 425.984 679.2 426.002C679.869 426.066 680.538 426.129 681.207 426.174C681.341 426.192 681.476 426.201 681.612 426.201C682.21 426.256 682.809 426.301 683.407 426.328C683.83 426.364 684.243 426.382 684.666 426.409C684.886 426.419 685.097 426.428 685.317 426.437C685.898 426.473 686.479 426.491 687.069 426.509C687.782 426.536 688.495 426.554 689.199 426.572C690.052 426.59 690.915 426.6 691.769 426.6H691.786C692.623 426.6 693.467 426.591 694.304 426.572H694.621L695.545 426.545C696.02 426.536 696.495 426.518 696.962 426.5C697.86 426.464 698.749 426.419 699.638 426.364C699.99 426.346 700.35 426.319 700.703 426.301C700.861 426.292 701.028 426.274 701.187 426.265C701.741 426.229 702.287 426.192 702.841 426.147C703.414 426.102 703.994 426.048 704.567 425.984C705.306 425.912 706.045 425.83 706.785 425.749C707.365 425.686 707.946 425.613 708.518 425.541C708.595 425.534 708.672 425.522 708.747 425.505C709.302 425.441 709.856 425.369 710.402 425.287C711.053 425.197 711.696 425.097 712.338 424.998C712.409 424.989 712.47 424.98 712.541 424.971C713.65 424.79 714.768 424.609 715.886 424.401C717.056 424.183 718.227 423.948 719.389 423.704C719.82 423.613 720.242 423.514 720.674 423.423C720.911 423.369 721.158 423.324 721.387 423.269C721.747 423.188 722.1 423.106 722.452 423.016C722.513 423.007 722.584 422.989 722.645 422.98C723.138 422.871 723.622 422.745 724.115 422.618C725.101 422.373 726.069 422.12 727.037 421.849C727.469 421.74 727.9 421.622 728.314 421.505C728.437 421.469 728.56 421.432 728.674 421.396C730.461 420.88 732.233 420.334 733.991 419.758C734.765 419.505 735.531 419.242 736.297 418.962C737.943 418.383 739.574 417.773 741.19 417.134C741.622 416.971 742.053 416.79 742.484 416.618C743.118 416.356 743.752 416.093 744.377 415.831C744.94 415.586 745.503 415.342 746.075 415.089C746.357 414.971 746.639 414.844 746.92 414.718C747.765 414.338 748.61 413.948 749.446 413.559C750.01 413.288 750.564 413.025 751.119 412.754C751.999 412.32 752.87 411.876 753.742 411.433C753.962 411.315 754.173 411.198 754.384 411.089C754.939 410.799 755.493 410.501 756.056 410.211C756.945 409.722 757.834 409.234 758.715 408.727C759.014 408.564 759.304 408.392 759.604 408.22C760.572 407.659 761.531 407.089 762.482 406.51C764.585 405.216 766.659 403.864 768.704 402.456C769.215 402.112 769.725 401.75 770.227 401.397C771.178 400.727 772.111 400.039 773.044 399.352C773.141 399.279 773.229 399.207 773.325 399.144C773.792 398.791 774.258 398.438 774.725 398.076C775.693 397.325 776.652 396.564 777.612 395.786C777.629 395.777 777.656 395.75 777.682 395.732C778.114 395.379 778.545 395.026 778.967 394.673C780.279 393.578 781.573 392.465 782.84 391.316C783.465 390.764 784.081 390.194 784.688 389.624C785.146 389.198 785.604 388.773 786.053 388.339C786.959 387.461 787.848 386.592 788.728 385.705C789.168 385.271 789.6 384.818 790.04 384.366C790.471 383.913 790.911 383.461 791.342 382.999C791.492 382.846 791.642 382.683 791.791 382.52C792.231 382.04 792.671 381.551 793.112 381.072C793.49 380.656 793.86 380.221 794.238 379.787C794.872 379.063 795.514 378.339 796.139 377.606C796.172 377.565 796.208 377.525 796.245 377.488C796.28 377.443 796.315 377.407 796.342 377.371H796.333C809.127 362.16 818.632 344.329 824.221 325.058C829.81 305.787 831.355 285.516 828.753 265.585C826.151 245.655 819.462 226.519 809.128 209.446C798.795 192.372 785.052 177.75 768.81 166.546Z" fill="url(#paint0_linear_0_421)"/>
<g opacity="0.15">
<path d="M590.657 59.7554C592.411 66.2351 595.051 72.4263 598.497 78.1437C592.728 73.0486 587.574 67.2612 583.144 60.9053C585.632 60.4214 588.136 60.0381 590.657 59.7554Z" fill="black"/>
<path d="M504.772 159.966C498.258 163.622 492.167 168.024 486.616 173.088C495.988 161.693 502.839 148.338 506.691 133.95C506.738 133.777 506.785 133.603 506.83 133.43L506.961 132.94C511.591 115.767 520.574 100.167 532.991 87.7349L533.967 86.757L534.656 87.9655C538.463 94.6203 543.018 100.791 548.228 106.351C540.245 129.512 524.71 148.788 504.772 159.966Z" fill="black"/>
<path d="M550.654 98.3258L550.523 98.8156C550.477 98.9887 550.431 99.1627 550.384 99.3355C550.127 100.288 549.854 101.233 549.572 102.174C546.787 94.7591 544.832 87.0428 543.743 79.1737L543.641 78.506L544.175 78.1136C550.872 73.1655 558.147 69.0997 565.828 66.0114C558.932 75.7635 553.792 86.7082 550.654 98.3258Z" fill="black"/>
<path d="M461.079 194.58C466.845 191.336 472.24 187.442 477.167 182.969C467.326 194.75 460.271 208.715 456.556 223.768C452.841 238.821 452.567 254.554 455.755 269.734C458.943 284.915 465.507 299.13 474.932 311.266C484.358 323.402 496.388 333.129 510.081 339.685L510.526 339.896L510.97 339.69C518.366 336.254 526.165 333.82 534.17 332.447C529.173 335.064 524.516 338.315 520.306 342.124L518.882 343.39L520.669 343.996C522.211 344.52 523.753 345.003 525.252 345.43C534.061 347.953 543.167 349.206 552.311 349.153C593.857 348.879 635.725 358.755 676.751 378.504C683.787 381.886 691.085 384.659 698.569 386.794C731.183 396.131 766.001 392.772 796.358 377.362C779.243 397.713 756.865 412.654 731.821 420.451C706.777 428.247 680.096 428.579 654.876 421.408C647.392 419.273 640.094 416.5 633.058 413.118C592.032 393.369 550.164 383.493 508.619 383.767C499.475 383.82 490.368 382.567 481.559 380.045C480.06 379.617 478.518 379.134 476.976 378.61L475.19 378.004L476.614 376.738C480.823 372.929 485.48 369.678 490.477 367.061C482.472 368.434 474.674 370.869 467.278 374.304L466.834 374.51L466.389 374.299C449.945 366.43 435.951 354.018 425.97 338.447C415.988 322.877 410.411 304.762 409.86 286.122C409.309 267.482 413.807 249.052 422.851 232.888C431.896 216.724 445.131 203.461 461.079 194.58Z" fill="black"/>
</g>
</g>
<defs>
<linearGradient id="paint0_linear_0_421" x1="619.905" y1="59.1725" x2="619.905" y2="426.6" gradientUnits="userSpaceOnUse">
<stop stop-color="#744FC6"/>
<stop offset="1" stop-color="#7C01FA"/>
</linearGradient>
<clipPath id="clip0_0_421">
<rect width="830" height="720" fill="white"/>
</clipPath>
</defs>
</svg>
