<svg width="30" height="21" viewBox="0 0 30 21" fill="none" xmlns="http://www.w3.org/2000/svg">
<path d="M0 2.6875C0 2.17364 0.197544 1.68083 0.549175 1.31748C0.900806 0.954129 1.37772 0.75 1.875 0.75H28.125C28.6223 0.75 29.0992 0.954129 29.4508 1.31748C29.8025 1.68083 30 2.17364 30 2.6875V18.1875C30 18.7014 29.8025 19.1942 29.4508 19.5575C29.0992 19.9209 28.6223 20.125 28.125 20.125H1.875C1.37772 20.125 0.900806 19.9209 0.549175 19.5575C0.197544 19.1942 0 18.7014 0 18.1875V2.6875ZM5.625 2.6875C5.625 3.71521 5.22991 4.70084 4.52665 5.42754C3.82339 6.15424 2.86956 6.5625 1.875 6.5625V14.3125C2.86956 14.3125 3.82339 14.7208 4.52665 15.4475C5.22991 16.1742 5.625 17.1598 5.625 18.1875H24.375C24.375 17.1598 24.7701 16.1742 25.4734 15.4475C26.1766 14.7208 27.1304 14.3125 28.125 14.3125V6.5625C27.1304 6.5625 26.1766 6.15424 25.4734 5.42754C24.7701 4.70084 24.375 3.71521 24.375 2.6875H5.625Z" fill="black"/>
</svg>
