<svg width="824" height="602" viewBox="0 0 824 602" fill="none" xmlns="http://www.w3.org/2000/svg">
<g clip-path="url(#clip0_0_608)">
<path d="M243.78 96.3789C268.655 96.3789 288.82 74.8038 288.82 48.1895C288.82 21.5752 268.655 0 243.78 0C218.905 0 198.74 21.5752 198.74 48.1895C198.74 74.8038 218.905 96.3789 243.78 96.3789Z" fill="#FF6584"/>
<path d="M325.06 11.2162C303.231 8.05939 278.311 20.6828 272.653 43.4592C271.227 39.4096 268.635 35.9497 265.251 33.5795C261.867 31.2093 257.867 30.0514 253.827 30.2732C249.788 30.4949 245.919 32.0849 242.78 34.8132C239.64 37.5416 237.393 41.2672 236.362 45.4517L238.861 47.3667C285.638 58.1898 334.06 57.9555 380.744 46.6804C365.561 29.6072 346.888 14.373 325.06 11.2162Z" fill="#F0F0F0"/>
<path d="M231.447 75.4689C209.619 72.312 184.698 84.9354 179.041 107.712C177.615 103.662 175.023 100.202 171.639 97.8321C168.255 95.4619 164.254 94.304 160.215 94.5258C156.176 94.7476 152.307 96.3375 149.167 99.0659C146.028 101.794 143.78 105.52 142.75 109.704L145.249 111.619C192.026 122.442 240.448 122.208 287.132 110.933C271.948 93.8599 253.275 78.6256 231.447 75.4689Z" fill="#F0F0F0"/>
<path d="M398.082 204.34C390.694 191.266 381.939 177.306 368.228 173.037C352.35 168.094 336.04 177.915 322.204 187.606C280.829 216.59 240.984 248 202.851 281.693L202.893 282.201C232.581 280.01 262.268 277.82 291.956 275.629C313.405 274.047 335.592 272.246 354.547 261.389C361.74 257.27 368.751 251.767 376.902 251.383C387.029 250.907 395.858 258.474 402.797 266.38C443.843 313.144 455.721 384.659 501.77 425.745C472.733 349.126 438.061 275.092 398.082 204.34Z" fill="#F2F2F2"/>
<path d="M650.385 600.989C645.846 594.857 643.991 593.421 639.514 587.232C603.058 536.784 568.792 484.632 536.717 430.777C514.93 394.2 494.223 356.921 474.597 318.939C465.253 300.882 456.166 282.684 447.335 264.343C440.482 250.123 433.782 235.817 427.235 221.426C425.362 217.316 423.543 213.187 421.733 209.048C417.467 199.316 413.281 189.536 408.786 179.936C403.664 168.994 397.429 157.523 388.023 150.172C383.743 146.689 378.624 144.582 373.266 144.096C365.609 143.567 358.544 146.95 351.903 150.645C303.313 177.753 257.822 211.741 216.677 250.416C175.427 289.177 138.555 332.968 106.815 380.896C105.844 382.379 103.548 380.962 104.528 379.469C108.387 373.629 112.323 367.853 116.335 362.14C166.226 291.146 227.4 230.096 297.06 181.779C308.78 173.653 320.72 165.908 332.88 158.544C339.009 154.83 345.165 151.164 351.426 147.725C357.564 144.352 364.081 141.318 371.093 141.205C394.956 140.808 407.311 169.722 415.798 189.177C418.465 195.3 421.164 201.404 423.896 207.489C434.22 230.592 444.941 253.483 456.06 276.164C462.922 290.167 469.934 304.089 477.096 317.928C499.386 361.025 523.078 403.249 548.171 444.6C581.412 499.376 614.389 547.763 652.257 598.986C653.3 600.403 651.436 602.425 650.385 600.989Z" fill="#E4E4E4"/>
<path d="M214.319 236.138C212.933 234.485 211.555 232.831 210.159 231.178C199.156 218.157 187.348 205.288 172.238 197.823C165.033 194.151 157.168 192.201 149.188 192.106C140.939 192.135 132.876 194.45 125.255 197.691C121.652 199.231 118.128 200.979 114.657 202.84C110.692 204.976 106.797 207.253 102.921 209.549C95.6433 213.858 88.4605 218.355 81.3721 223.042C67.2683 232.368 53.6061 242.406 40.3857 253.156C33.5323 258.731 26.8204 264.488 20.2499 270.428C14.1387 275.947 8.15106 281.613 2.28706 287.427C1.03308 288.665 -0.839236 286.662 0.414711 285.424C1.9602 283.884 3.52334 282.353 5.08649 280.841C9.50217 276.57 13.9886 272.381 18.5457 268.274C26.8557 260.772 35.3809 253.559 44.1213 246.636C57.7129 235.864 71.7723 225.823 86.2997 216.513C93.5592 211.864 100.919 207.41 108.378 203.152C110.63 201.867 112.909 200.61 115.214 199.42C120.444 196.597 125.878 194.231 131.463 192.343C139.375 189.604 147.747 188.724 156.006 189.763C163.98 191.004 171.663 193.848 178.649 198.144C193.486 207.017 204.993 220.737 216.191 234.126C217.322 235.486 215.458 237.499 214.319 236.138Z" fill="#E4E4E4"/>
<path d="M518.315 371.066L553.867 357.154L571.519 350.246C577.268 347.996 583.003 345.435 588.946 343.824C594.2 342.4 599.539 342.167 604.719 344.039C609.29 345.85 613.474 348.624 617.022 352.199C620.647 355.771 624.02 359.625 627.113 363.729C630.957 368.671 634.743 373.664 638.546 378.641C654.243 399.18 669.838 419.809 685.33 440.526C700.821 461.244 716.209 482.049 731.493 502.943C746.815 523.887 762.031 544.919 777.142 566.039C778.993 568.626 780.843 571.214 782.691 573.804C783.712 575.235 786.014 573.825 784.979 572.374C769.756 551.042 754.428 529.797 738.993 508.639C723.52 487.432 707.941 466.314 692.254 445.286C676.568 424.258 660.776 403.321 644.878 382.476C640.917 377.283 636.95 372.096 632.976 366.914C629.624 362.543 626.31 358.125 622.634 354.056C615.885 346.589 607.453 339.989 597.361 339.81C591.427 339.705 585.684 341.72 580.171 343.854C574.227 346.154 568.298 348.498 562.362 350.821L526.561 364.831L517.611 368.333C516.022 368.955 516.709 371.695 518.315 371.066Z" fill="#E4E4E4"/>
<path d="M167.559 214.207C149.492 204.272 126.355 206.218 109.753 218.63C141.42 224.475 172.741 232.297 203.555 242.054C190.759 234.031 180.75 221.46 167.559 214.207Z" fill="#F2F2F2"/>
<path d="M109.575 218.596L106.097 221.62C107.274 220.562 108.497 219.569 109.753 218.63C109.694 218.619 109.635 218.607 109.575 218.596Z" fill="#F2F2F2"/>
<path d="M615.684 371.205C612.184 366.648 608.4 361.875 603.166 360.024L598.279 360.23C635.481 430.565 685.726 492.024 745.929 540.833C702.514 484.291 659.099 427.748 615.684 371.205Z" fill="#F2F2F2"/>
<path d="M251.737 549.235C253.729 532.092 263.659 515.2 278.94 509.622C272.914 527.267 272.915 546.624 278.944 564.268C281.292 571.064 284.565 578.361 282.357 585.21C280.982 589.472 277.621 592.732 273.863 594.771C270.104 596.81 265.934 597.781 261.815 598.734L261.005 599.451C254.467 583.655 249.744 566.378 251.737 549.235Z" fill="#F0F0F0"/>
<path d="M279.092 509.946C270.193 520.614 264.662 534.011 263.285 548.234C262.938 551.29 263.043 554.386 263.596 557.407C264.225 560.332 265.573 563.023 267.502 565.201C269.263 567.27 271.288 569.169 272.547 571.66C273.174 572.946 273.54 574.359 273.621 575.806C273.702 577.254 273.496 578.703 273.017 580.06C271.905 583.473 269.713 586.254 267.481 588.895C265.003 591.827 262.385 594.83 261.332 598.717C261.204 599.188 260.529 598.949 260.656 598.479C262.489 591.716 268.625 587.875 271.551 581.783C272.916 578.941 273.489 575.641 272.209 572.641C271.09 570.018 269.004 568.058 267.204 565.979C265.293 563.883 263.891 561.319 263.12 558.511C262.424 555.529 262.208 552.443 262.48 549.384C262.99 542.487 264.51 535.718 266.985 529.326C269.772 522.014 273.707 515.267 278.621 509.375C278.925 509.01 279.394 509.583 279.092 509.946Z" fill="white"/>
<path d="M263.476 543.626C261.277 543.055 259.34 541.666 258.01 539.708C256.679 537.749 256.043 535.348 256.215 532.934C256.251 532.446 256.962 532.483 256.926 532.972C256.762 535.22 257.355 537.456 258.597 539.277C259.839 541.098 261.649 542.384 263.7 542.903C264.145 543.017 263.919 543.739 263.476 543.626Z" fill="white"/>
<path d="M266.481 564.277C270.452 561.74 273.384 557.694 274.692 552.947C274.821 552.477 275.496 552.716 275.367 553.186C273.998 558.123 270.939 562.327 266.801 564.957C266.406 565.208 266.088 564.526 266.481 564.277Z" fill="white"/>
<path d="M270.432 522.736C271.24 523.146 272.131 523.336 273.024 523.288C273.917 523.239 274.785 522.954 275.55 522.458C275.941 522.202 276.259 522.884 275.87 523.138C275.022 523.682 274.063 523.995 273.077 524.051C272.09 524.107 271.105 523.904 270.209 523.459C270.121 523.424 270.049 523.356 270.007 523.266C269.965 523.177 269.956 523.074 269.983 522.978C270.013 522.882 270.077 522.803 270.161 522.758C270.245 522.713 270.343 522.705 270.432 522.736Z" fill="white"/>
<path d="M325.519 540.242C325.279 540.409 325.039 540.576 324.798 540.749C321.58 543.014 318.539 545.554 315.705 548.345C315.483 548.557 315.261 548.775 315.045 548.994C308.285 555.796 302.764 563.882 298.762 572.841C297.173 576.407 295.84 580.098 294.774 583.881C293.303 589.105 292.096 594.895 289.183 599.168C288.884 599.618 288.559 600.047 288.21 600.453H261.885C261.826 600.421 261.765 600.395 261.705 600.363L260.654 600.415C260.696 600.216 260.744 600.01 260.787 599.811C260.811 599.695 260.84 599.579 260.865 599.464C260.882 599.387 260.901 599.309 260.913 599.239C260.918 599.213 260.925 599.187 260.931 599.168C260.943 599.097 260.961 599.033 260.973 598.969C261.237 597.819 261.509 596.668 261.789 595.518C261.789 595.512 261.789 595.512 261.795 595.505C263.853 586.719 266.877 578.224 270.804 570.2C270.925 569.962 271.045 569.718 271.177 569.48C272.996 565.928 275.083 562.541 277.417 559.353C278.701 557.611 280.066 555.941 281.507 554.347C285.239 550.237 289.552 546.78 294.288 544.104C303.729 538.77 314.66 536.727 324.751 539.985C325.009 540.068 325.261 540.152 325.519 540.242Z" fill="#F0F0F0"/>
<path d="M325.46 540.599C312.351 543.385 300.397 550.519 291.293 560.988C289.296 563.204 287.638 565.744 286.38 568.513C285.236 571.252 284.799 574.27 285.113 577.251C285.354 580.038 285.902 582.858 285.506 585.659C285.284 587.089 284.781 588.453 284.031 589.661C283.281 590.869 282.301 591.894 281.155 592.668C278.346 594.677 275.031 595.486 271.763 596.156C268.134 596.901 264.354 597.613 261.326 600.038C260.959 600.332 260.554 599.705 260.921 599.412C266.19 595.193 273.25 596.078 279.014 593.1C281.704 591.71 284.018 589.445 284.684 586.225C285.267 583.409 284.704 580.5 284.437 577.681C284.09 574.777 284.414 571.826 285.378 569.086C286.501 566.258 288.064 563.654 290.003 561.387C294.291 556.209 299.314 551.784 304.887 548.274C311.227 544.232 318.166 541.379 325.405 539.84C325.853 539.745 325.905 540.505 325.46 540.599Z" fill="white"/>
<path d="M294.039 557.432C292.605 555.559 291.839 553.202 291.879 550.782C291.919 548.361 292.762 546.034 294.258 544.217C294.561 543.851 295.108 544.338 294.804 544.705C293.408 546.395 292.623 548.562 292.59 550.816C292.557 553.071 293.279 555.263 294.624 556.998C294.916 557.376 294.329 557.807 294.039 557.432Z" fill="white"/>
<path d="M284.817 575.856C289.416 576.388 294.033 575.047 297.749 572.099C298.117 571.806 298.521 572.432 298.154 572.724C294.282 575.785 289.474 577.17 284.69 576.605C284.234 576.551 284.363 575.802 284.817 575.856Z" fill="white"/>
<path d="M311.348 545.233C311.762 546.081 312.366 546.806 313.107 547.343C313.847 547.879 314.701 548.211 315.591 548.307C316.047 548.355 315.917 549.104 315.464 549.056C314.481 548.945 313.539 548.578 312.719 547.987C311.9 547.396 311.229 546.599 310.763 545.666C310.713 545.582 310.694 545.481 310.71 545.382C310.727 545.284 310.778 545.196 310.853 545.137C310.931 545.08 311.027 545.058 311.119 545.076C311.212 545.094 311.294 545.15 311.348 545.233Z" fill="white"/>
<path d="M443.132 456.084C430.22 425.526 430.696 386.793 450.735 361.008C457.439 396.764 475.748 428.83 502.422 451.533C512.739 460.249 525.062 468.794 527.88 482.531C529.634 491.079 527.148 500.12 522.851 507.566C518.553 515.012 512.563 521.137 506.64 527.173L505.976 529.239C480.206 510.149 456.044 486.641 443.132 456.084Z" fill="#F0F0F0"/>
<path d="M451.293 361.381C446.64 388.688 450.147 416.87 461.316 441.923C463.631 447.362 466.733 452.377 470.508 456.782C474.314 460.947 479.093 463.945 484.349 465.465C489.223 466.987 494.373 467.941 498.816 470.704C501.07 472.155 503.013 474.099 504.516 476.41C506.019 478.72 507.049 481.344 507.537 484.11C508.922 490.968 507.922 497.949 506.722 504.74C505.389 512.28 503.894 520.089 505.825 527.669C506.059 528.588 504.713 528.922 504.479 528.005C501.12 514.818 507.652 501.812 506.739 488.553C506.313 482.366 504.141 476.279 499.183 472.695C494.848 469.56 489.538 468.572 484.591 467.076C479.443 465.674 474.695 462.945 470.761 459.127C466.789 454.941 463.512 450.062 461.07 444.7C455.392 432.722 451.509 419.863 449.565 406.594C447.267 391.464 447.405 376.025 449.973 360.944C450.132 360.011 451.451 360.453 451.293 361.381Z" fill="white"/>
<path d="M457.276 434.082C453.093 435.517 448.569 435.314 444.513 433.509C440.458 431.704 437.133 428.416 435.134 424.231C434.732 423.383 435.946 422.675 436.348 423.524C438.203 427.425 441.3 430.488 445.08 432.16C448.86 433.832 453.074 434.004 456.962 432.643C457.807 432.349 458.116 433.79 457.276 434.082Z" fill="white"/>
<path d="M481.783 465.041C485.963 456.538 486.994 446.662 484.67 437.382C484.439 436.463 485.785 436.128 486.015 437.046C488.416 446.708 487.324 456.983 482.956 465.821C482.539 466.663 481.368 465.879 481.783 465.041Z" fill="white"/>
<path d="M449.042 391.944C450.769 391.75 452.423 391.1 453.857 390.053C455.291 389.005 456.459 387.593 457.257 385.944C457.664 385.096 458.834 385.882 458.43 386.724C457.541 388.542 456.249 390.1 454.667 391.261C453.086 392.422 451.262 393.151 449.356 393.384C449.179 393.422 448.994 393.386 448.84 393.283C448.686 393.181 448.574 393.02 448.527 392.832C448.486 392.641 448.517 392.441 448.614 392.275C448.711 392.108 448.864 391.99 449.042 391.944Z" fill="white"/>
<path d="M556.856 361.307C556.617 361.844 556.377 362.381 556.142 362.929C552.952 370.164 550.317 377.664 548.262 385.356C548.094 385.948 547.933 386.55 547.781 387.146C543.016 405.733 541.517 425.106 543.361 444.279C544.101 451.907 545.382 459.465 547.194 466.885C549.697 477.133 553.173 488.031 552.389 498.264C552.318 499.333 552.186 500.396 551.992 501.447L508.383 529.946C508.253 529.957 508.129 529.98 507.999 529.992L506.307 531.215C506.188 530.839 506.073 530.447 505.955 530.071C505.885 529.853 505.825 529.629 505.756 529.412C505.713 529.265 505.67 529.117 505.623 528.987C505.608 528.938 505.594 528.889 505.585 528.85C505.539 528.72 505.508 528.594 505.467 528.475C504.817 526.283 504.18 524.083 503.557 521.874C503.551 521.863 503.551 521.863 503.554 521.846C498.843 505.002 495.405 487.589 494.547 470.171C494.521 469.647 494.489 469.113 494.483 468.576C494.137 460.722 494.391 452.852 495.243 445.043C495.723 440.768 496.404 436.522 497.285 432.322C499.58 421.473 503.456 411.077 508.77 401.516C519.367 382.459 535.543 367.24 555.34 361.714C555.847 361.572 556.344 361.437 556.856 361.307Z" fill="#F0F0F0"/>
<path d="M557.096 361.963C538.015 380.769 524.957 405.53 519.777 432.729C518.565 438.563 518.219 444.565 518.754 450.514C519.45 456.291 521.579 461.763 524.92 466.362C527.954 470.718 531.53 474.796 533.522 479.865C534.506 482.476 534.963 485.279 534.863 488.092C534.763 490.905 534.109 493.664 532.942 496.187C530.189 502.555 525.462 507.485 520.682 512.134C515.375 517.296 509.787 522.567 507.063 529.863C506.733 530.747 505.471 530.148 505.8 529.265C510.538 516.571 523.073 510.394 529.805 499.22C532.946 494.006 534.637 487.747 532.696 481.691C530.998 476.396 527.314 472.186 524.206 467.805C520.885 463.37 518.63 458.132 517.637 452.549C516.822 446.648 516.95 440.642 518.018 434.787C520.224 421.566 524.36 408.798 530.274 396.951C536.953 383.39 545.751 371.151 556.288 360.765C556.94 360.122 557.745 361.325 557.096 361.963Z" fill="white"/>
<path d="M520.963 423.866C516.816 422.317 513.319 419.241 511.096 415.187C508.873 411.133 508.069 406.366 508.828 401.737C508.984 400.801 510.351 401.017 510.194 401.955C509.48 406.264 510.229 410.704 512.307 414.475C514.384 418.245 517.652 421.096 521.522 422.514C522.363 422.824 521.799 424.173 520.963 423.866Z" fill="white"/>
<path d="M523.109 464.371C531.232 460.275 537.612 453.053 540.979 444.147C541.312 443.264 542.575 443.863 542.242 444.745C538.722 454.006 532.068 461.507 523.607 465.75C522.8 466.154 522.307 464.773 523.109 464.371Z" fill="white"/>
<path d="M538.101 384.917C539.589 385.874 541.276 386.421 543.01 386.509C544.744 386.596 546.471 386.221 548.037 385.418C548.838 385.003 549.331 386.384 548.534 386.796C546.801 387.675 544.893 388.087 542.977 387.995C541.061 387.903 539.195 387.31 537.542 386.269C537.378 386.184 537.251 386.037 537.186 385.856C537.12 385.675 537.122 385.474 537.19 385.294C537.265 385.115 537.402 384.975 537.573 384.905C537.744 384.834 537.933 384.839 538.101 384.917Z" fill="white"/>
<path d="M640.727 491.467L689.78 451.621L713.689 477.203L633.779 535.711L640.727 491.467Z" fill="#3F3D56"/>
<path d="M594.978 601.183H427.18L433.065 580.781C469.54 566.653 449.052 536.287 483.748 517.726C568.613 472.326 601.468 336.849 589.041 283.295L644.654 280.779C644.654 280.779 721.457 514.139 594.978 601.183Z" fill="#3F3D56"/>
<path d="M738.229 505.279C733.217 509.995 726.804 512.656 720.131 512.789C713.458 512.923 706.957 510.52 701.783 506.008L701.674 505.913L701.671 505.763C701.609 503.263 701.245 500.783 700.587 498.383C700.554 500.111 700.319 501.827 699.886 503.491L699.746 504.051L699.369 503.635C699.043 503.276 698.728 502.911 698.432 502.551C696.692 500.437 695.234 498.075 694.1 495.532C688.674 483.593 680.813 473.108 671.095 464.852C669.36 463.343 667.746 461.681 666.269 459.884C660.029 452.289 656.521 442.565 656.371 432.454C656.221 422.343 659.44 412.506 665.451 404.703C671.463 396.9 679.874 391.641 689.178 389.868C698.483 388.095 708.074 389.924 716.233 395.027L716.482 395.183L716.353 395.458C715.408 397.557 714.16 399.483 712.655 401.165C714.724 399.969 716.639 398.489 718.35 396.763L718.531 396.581L718.736 396.732C721.416 398.716 723.859 401.043 726.012 403.661L726.244 403.946C727.886 405.956 729.907 407.574 732.173 408.693C734.439 409.812 736.901 410.407 739.396 410.44C743.468 410.513 747.477 411.529 751.147 413.419C754.816 415.308 758.06 418.025 760.655 421.384C763.249 424.742 765.133 428.662 766.176 432.874C767.219 437.086 767.398 441.49 766.698 445.782L766.666 445.982L766.485 446.04C763.321 447.203 759.966 447.651 756.631 447.356C759.415 448.653 762.381 449.448 765.408 449.708L765.799 449.741L765.675 450.139C764.098 455.206 761.292 459.733 757.543 463.258L757.436 463.358C757.398 463.393 757.36 463.429 757.323 463.464C754.529 466.038 752.244 469.182 750.602 472.713C748.959 476.244 747.992 480.09 747.757 484.026C747.572 488.069 746.633 492.032 744.997 495.681C743.36 499.331 741.059 502.594 738.229 505.279Z" fill="url(#paint0_linear_0_608)"/>
<path opacity="0.15" d="M743.361 495.581C743.311 496.668 743.205 497.75 743.044 498.825C745.792 494.31 747.374 489.097 747.627 483.715C747.664 482.892 747.745 482.071 747.853 481.254C745.184 485.513 743.632 490.461 743.361 495.581Z" fill="black"/>
<path opacity="0.15" d="M752.235 458.91C754.475 459.948 756.834 460.662 759.249 461.032C760.18 459.981 761.039 458.86 761.819 457.677C758.736 458.781 755.475 459.201 752.235 458.91Z" fill="black"/>
<path opacity="0.15" d="M762.572 449.003C762.821 451.61 762.754 454.242 762.371 456.831C763.709 454.654 764.776 452.3 765.545 449.828L765.669 449.43L765.278 449.397C764.37 449.314 763.467 449.182 762.572 449.003Z" fill="black"/>
<path opacity="0.15" d="M759.962 420.368C757.367 417.217 754.185 414.679 750.622 412.916C747.059 411.153 743.191 410.204 739.266 410.129C736.77 410.096 734.309 409.501 732.043 408.382C729.776 407.263 727.756 405.645 726.113 403.635L725.881 403.35C723.729 400.732 721.285 398.404 718.605 396.421L718.4 396.27L718.22 396.452C716.508 398.178 714.594 399.658 712.524 400.854C714.029 399.172 715.277 397.246 716.222 395.147L716.351 394.872L716.103 394.716C710.694 391.329 704.612 389.358 698.356 388.964C692.099 388.57 685.844 389.764 680.101 392.45C674.357 395.135 669.289 399.234 665.308 404.414C661.328 409.594 658.549 415.708 657.197 422.256C659.8 417.363 663.285 413.072 667.45 409.631C671.614 406.19 676.375 403.667 681.458 402.209C686.54 400.752 691.842 400.387 697.057 401.138C702.272 401.888 707.296 403.739 711.837 406.582L712.086 406.738L711.957 407.013C711.012 409.111 709.764 411.037 708.259 412.72C710.328 411.524 712.243 410.044 713.954 408.318L714.135 408.135L714.34 408.286C717.02 410.27 719.464 412.597 721.616 415.216L721.848 415.5C723.49 417.511 725.511 419.128 727.777 420.247C730.043 421.366 732.505 421.961 735 421.994C741.526 422.112 747.812 424.649 752.785 429.171C757.758 433.693 761.112 439.92 762.274 446.792C763.653 446.527 765.016 446.173 766.355 445.729L766.536 445.671L766.568 445.471C767.3 441.025 767.087 436.459 765.943 432.113C764.799 427.767 762.755 423.752 759.962 420.368Z" fill="black"/>
<path d="M819.33 296.14C819.328 319.134 811.705 341.381 797.816 358.927C783.927 376.473 764.672 388.181 743.475 391.968L743.027 392.047L742.68 391.737C736.901 386.581 730.522 382.248 723.701 378.847C727.534 382.606 730.911 386.864 733.752 391.522L734.719 393.077L732.977 393.167C731.473 393.245 729.979 393.284 728.536 393.284C720.058 393.292 711.62 392.04 703.464 389.565C666.415 378.287 626.629 376.358 585.213 383.832C578.111 385.109 570.923 385.751 563.722 385.751C493.104 385.751 435.653 324.269 435.653 248.699C435.614 219.886 444.078 191.795 459.837 168.431C475.596 145.066 497.847 127.621 523.417 118.58L524.297 118.268L524.645 119.188C527.377 126.094 529.076 133.418 529.678 140.89C531.375 132.994 532.102 124.894 531.841 116.796L531.813 115.941L532.59 115.732C542.772 113.017 553.228 111.645 563.722 111.647L564.858 111.652C572.894 111.677 580.846 109.89 588.194 106.407C595.542 102.925 602.121 97.824 607.503 91.4381C616.327 81.0607 627.149 72.8519 639.222 67.3763C651.295 61.9008 664.333 59.2886 677.44 59.7193C690.547 60.1501 703.411 63.6136 715.147 69.8716C726.884 76.1296 737.214 85.0335 745.427 95.9708L745.809 96.4773L745.556 97.0709C740.252 109.58 734.472 118.694 727.574 125.359C736.427 120.915 744.53 114.933 751.554 107.656L752.461 106.715L753.097 107.883C761.192 122.736 765.454 139.623 765.448 156.816L765.446 157.306C765.445 157.479 765.445 157.654 765.445 157.827C765.445 184.128 774.951 209.056 791.569 226.296C800.309 235.374 807.267 246.229 812.034 258.222C816.801 270.216 819.282 283.107 819.33 296.14Z" fill="url(#paint1_linear_0_608)"/>
<g opacity="0.15">
<path d="M708.329 66.5698C705.199 72.1284 701.347 77.1837 696.889 81.5847C703.272 78.3786 709.273 74.3658 714.763 69.6322C712.657 68.5222 710.512 67.5014 708.329 66.5698Z" fill="black"/>
<path d="M760.884 182.523C765.822 187.65 770.202 193.358 773.94 199.539C768.315 186.459 765.416 172.225 765.445 157.827C765.445 157.653 765.445 157.479 765.446 157.306L765.448 156.816C765.454 139.623 761.192 122.736 753.097 107.883L752.461 106.715L751.554 107.656C746.548 112.832 740.99 117.361 734.994 121.147C736.54 144.798 745.769 166.841 760.884 182.523Z" fill="black"/>
<path d="M734.763 113.042L734.762 113.532C734.761 113.705 734.761 113.88 734.761 114.053C734.761 115.006 734.777 115.957 734.802 116.907C739.078 110.753 742.686 104.098 745.556 97.0709L745.809 96.4772L745.427 95.9708C740.637 89.5934 735.119 83.8833 729.001 78.9741C732.81 89.8703 734.762 101.409 734.763 113.042Z" fill="black"/>
<path d="M791.569 226.296C787.201 221.75 783.32 216.698 779.997 211.233C785.948 224.797 788.882 239.651 788.569 254.632C788.257 269.612 784.707 284.311 778.197 297.578C771.687 310.845 762.394 322.319 751.047 331.1C739.699 339.882 726.605 345.733 712.791 348.194L712.342 348.273L711.995 347.963C706.216 342.807 699.837 338.474 693.017 335.074C696.849 338.832 700.226 343.09 703.068 347.749L704.034 349.303L702.292 349.393C700.788 349.471 699.294 349.51 697.852 349.51C689.374 349.518 680.936 348.266 672.78 345.791C635.73 334.513 595.944 332.584 554.528 340.058C547.427 341.336 540.238 341.977 533.037 341.977C501.648 342.003 471.353 329.642 447.95 307.26C458.331 330.721 474.719 350.55 495.212 364.443C515.705 378.337 539.461 385.725 563.722 385.751C570.923 385.751 578.111 385.109 585.213 383.832C626.629 376.358 666.415 378.287 703.464 389.565C711.62 392.04 720.058 393.292 728.536 393.284C729.979 393.284 731.473 393.245 732.977 393.167L734.719 393.077L733.752 391.522C730.911 386.864 727.534 382.606 723.701 378.847C730.522 382.248 736.901 386.581 742.68 391.737L743.027 392.046L743.475 391.968C760.064 389.016 775.559 381.189 788.232 369.363C800.906 357.536 810.258 342.174 815.246 324.991C820.234 307.809 820.661 289.481 816.481 272.054C812.3 254.626 803.675 238.785 791.569 226.296Z" fill="black"/>
</g>
<path d="M364.27 271.557C359.382 265.922 356.848 257.468 359.446 250.302C363.339 257.55 369.502 263.091 376.845 265.945C379.68 267.035 382.94 267.931 384.488 270.697C385.383 272.485 385.602 274.573 385.1 276.53C384.595 278.464 383.86 280.32 382.913 282.055L382.909 282.555C376.009 280.416 369.157 277.191 364.27 271.557Z" fill="#6C63FF"/>
<path d="M607.019 434.979C602.132 429.344 599.597 420.89 602.196 413.724C606.088 420.972 612.251 426.513 619.594 429.367C622.43 430.457 625.69 431.353 627.238 434.119C628.133 435.907 628.352 437.995 627.85 439.952C627.344 441.886 626.609 443.742 625.662 445.477L625.658 445.977C618.758 443.838 611.906 440.613 607.019 434.979Z" fill="#7C01FA"/>
<path d="M721.484 540.454C718.07 533.691 717.594 524.826 721.785 518.584C723.859 526.643 728.53 533.658 734.972 538.388C737.462 540.202 740.409 541.942 741.261 545.034C741.709 547.006 741.433 549.086 740.489 550.845C739.548 552.583 738.402 554.184 737.079 555.609L736.959 556.093C730.778 552.174 724.898 547.217 721.484 540.454Z" fill="#7C01FA"/>
<path d="M803.992 409.862C800.577 403.099 800.101 394.235 804.293 387.992C806.366 396.052 811.037 403.067 817.479 407.796C819.97 409.61 822.916 411.351 823.768 414.443C824.217 416.414 823.94 418.494 822.997 420.254C822.055 421.991 820.909 423.592 819.587 425.017L819.466 425.501C813.286 421.582 807.406 416.625 803.992 409.862Z" fill="#7C01FA"/>
<path d="M264.625 460.202C261.211 453.439 260.734 444.574 264.926 438.332C266.999 446.391 271.67 453.406 278.112 458.136C280.603 459.95 283.549 461.69 284.401 464.783C284.85 466.754 284.573 468.834 283.63 470.594C282.688 472.331 281.542 473.932 280.22 475.357L280.099 475.841C273.919 471.922 268.039 466.965 264.625 460.202Z" fill="#E6E6E6"/>
<path d="M572.914 524.97C575.879 499.461 590.655 474.327 613.393 466.025C604.426 492.281 604.428 521.085 613.399 547.34C616.893 557.452 621.763 568.31 618.476 578.501C616.432 584.842 611.429 589.694 605.837 592.728C600.245 595.761 594.039 597.207 587.911 598.624L586.705 599.691C576.976 576.187 569.949 550.479 572.914 524.97Z" fill="#E6E6E6"/>
<path d="M613.619 466.508C600.377 482.382 592.147 502.317 590.098 523.481C589.581 528.028 589.737 532.635 590.561 537.13C591.496 541.482 593.503 545.486 596.373 548.727C598.993 551.807 602.006 554.632 603.88 558.339C604.813 560.252 605.358 562.354 605.479 564.508C605.599 566.662 605.293 568.819 604.579 570.837C602.924 575.916 599.663 580.055 596.342 583.984C592.654 588.347 588.759 592.816 587.192 598.6C587.002 599.301 585.997 598.944 586.186 598.245C588.914 588.182 598.044 582.466 602.398 573.402C604.429 569.173 605.282 564.263 603.377 559.799C601.712 555.895 598.607 552.978 595.93 549.885C593.086 546.767 590.999 542.952 589.852 538.772C588.817 534.336 588.495 529.744 588.9 525.192C589.658 514.929 591.921 504.857 595.604 495.346C599.751 484.466 605.607 474.425 612.918 465.658C613.371 465.115 614.069 465.969 613.619 466.508Z" fill="white"/>
<path d="M590.383 516.624C587.111 515.774 584.228 513.708 582.248 510.793C580.269 507.879 579.322 504.307 579.577 500.714C579.631 499.988 580.689 500.043 580.635 500.771C580.392 504.116 581.274 507.443 583.122 510.153C584.971 512.863 587.664 514.776 590.715 515.549C591.378 515.717 591.042 516.792 590.383 516.624Z" fill="white"/>
<path d="M594.853 547.353C600.763 543.578 605.125 537.558 607.071 530.494C607.263 529.794 608.268 530.15 608.076 530.849C606.039 538.196 601.487 544.451 595.329 548.365C594.742 548.738 594.269 547.724 594.853 547.353Z" fill="white"/>
<path d="M600.733 485.539C601.935 486.15 603.26 486.432 604.589 486.36C605.918 486.288 607.21 485.864 608.348 485.126C608.93 484.745 609.403 485.759 608.824 486.137C607.563 486.947 606.136 487.413 604.668 487.497C603.2 487.58 601.735 487.277 600.401 486.615C600.27 486.564 600.163 486.461 600.1 486.328C600.038 486.196 600.025 486.042 600.064 485.899C600.109 485.757 600.204 485.64 600.329 485.572C600.455 485.505 600.6 485.493 600.733 485.539Z" fill="white"/>
<path d="M682.702 511.588C682.345 511.837 681.988 512.085 681.63 512.343C676.841 515.712 672.316 519.492 668.099 523.645C667.769 523.961 667.438 524.286 667.116 524.611C657.057 534.733 648.842 546.765 642.888 560.095C640.524 565.402 638.54 570.894 636.954 576.523C634.764 584.296 632.968 592.912 628.634 599.27C628.189 599.939 627.705 600.578 627.186 601.183H588.015C587.926 601.135 587.837 601.097 587.747 601.049L586.183 601.125C586.246 600.829 586.317 600.523 586.38 600.227C586.416 600.054 586.46 599.882 586.496 599.71C586.523 599.596 586.55 599.481 586.568 599.376C586.577 599.337 586.586 599.299 586.594 599.27C586.612 599.165 586.639 599.07 586.657 598.974C587.05 597.262 587.456 595.551 587.873 593.839C587.873 593.83 587.873 593.83 587.881 593.82C591.09 580.787 595.344 567.927 601.287 556.165C601.466 555.812 601.644 555.448 601.841 555.094C604.547 549.809 607.653 544.769 611.127 540.025C613.036 537.434 615.068 534.948 617.213 532.576C622.766 526.46 629.183 521.317 636.23 517.335C650.279 509.398 666.544 506.358 681.559 511.205C681.943 511.33 682.318 511.454 682.702 511.588Z" fill="#E6E6E6"/>
<path d="M682.614 512.12C663.109 516.265 645.32 526.88 631.774 542.458C628.802 545.756 626.335 549.535 624.463 553.655C622.761 557.732 622.11 562.222 622.578 566.659C622.937 570.805 623.753 575.002 623.163 579.169C622.832 581.297 622.084 583.327 620.968 585.124C619.852 586.921 618.394 588.446 616.688 589.598C612.509 592.587 607.576 593.791 602.713 594.789C597.314 595.897 591.689 596.956 587.183 600.565C586.637 601.002 586.035 600.07 586.58 599.633C594.42 593.355 604.926 594.673 613.503 590.241C617.505 588.173 620.949 584.802 621.94 580.01C622.807 575.82 621.969 571.492 621.572 567.297C621.056 562.976 621.537 558.585 622.973 554.509C624.643 550.3 626.97 546.426 629.854 543.052C636.235 535.347 643.709 528.762 652.002 523.541C661.436 517.525 671.762 513.28 682.533 510.99C683.2 510.849 683.277 511.979 682.614 512.12Z" fill="white"/>
<path d="M635.86 537.167C633.726 534.381 632.587 530.873 632.646 527.271C632.706 523.669 633.96 520.207 636.185 517.504C636.637 516.958 637.451 517.684 636.998 518.23C634.922 520.744 633.754 523.969 633.704 527.323C633.655 530.678 634.729 533.94 636.73 536.522C637.165 537.084 636.292 537.726 635.86 537.167Z" fill="white"/>
<path d="M622.137 564.582C628.981 565.374 635.851 563.378 641.38 558.991C641.927 558.556 642.53 559.488 641.983 559.922C636.222 564.476 629.068 566.538 621.948 565.697C621.27 565.616 621.463 564.502 622.137 564.582Z" fill="white"/>
<path d="M661.616 519.015C662.232 520.277 663.131 521.356 664.233 522.154C665.335 522.953 666.605 523.446 667.929 523.59C668.608 523.661 668.414 524.776 667.74 524.705C666.277 524.539 664.876 523.992 663.656 523.113C662.437 522.233 661.438 521.048 660.746 519.66C660.67 519.535 660.642 519.384 660.667 519.238C660.692 519.091 660.768 518.96 660.879 518.872C660.995 518.787 661.137 518.754 661.275 518.781C661.413 518.808 661.536 518.892 661.616 519.015Z" fill="white"/>
<path d="M374.089 528.467L341.578 502.059L325.732 519.013L378.695 557.79L374.089 528.467Z" fill="#3F3D56"/>
<path d="M404.41 601.183H515.621L511.72 587.661C487.546 578.298 501.125 558.172 478.129 545.87C421.884 515.781 400.109 425.992 408.345 390.498L371.486 388.83C371.486 388.83 320.584 543.493 404.41 601.183Z" fill="#3F3D56"/>
<path d="M303.153 523.536C302.998 520.927 302.357 518.378 301.268 516.038C300.18 513.698 298.665 511.614 296.814 509.908C296.789 509.884 296.764 509.861 296.739 509.837L296.668 509.771C294.183 507.435 292.323 504.434 291.278 501.077L291.196 500.812L291.455 500.791C293.461 500.618 295.427 500.092 297.272 499.232C295.062 499.427 292.838 499.13 290.741 498.36L290.621 498.321L290.6 498.189C290.136 495.344 290.255 492.425 290.946 489.634C291.637 486.842 292.886 484.244 294.605 482.018C296.325 479.792 298.475 477.991 300.907 476.739C303.339 475.487 305.996 474.814 308.695 474.765C310.349 474.743 311.98 474.349 313.482 473.607C314.984 472.865 316.323 471.794 317.412 470.461L317.566 470.273C318.992 468.537 320.611 466.995 322.388 465.68L322.524 465.58L322.643 465.701C323.778 466.845 325.047 467.826 326.418 468.618C325.42 467.503 324.593 466.227 323.967 464.836L323.882 464.653L324.046 464.55C329.454 461.168 335.811 459.956 341.977 461.131C348.144 462.306 353.719 465.791 357.703 470.963C361.687 476.134 363.82 482.654 363.721 489.355C363.622 496.056 361.296 502.501 357.161 507.535C356.182 508.726 355.112 509.827 353.962 510.828C347.522 516.3 342.311 523.248 338.715 531.161C337.964 532.847 336.998 534.412 335.844 535.813C335.648 536.052 335.439 536.293 335.223 536.531L334.974 536.807L334.881 536.436C334.594 535.333 334.438 534.196 334.416 533.051C333.98 534.641 333.739 536.285 333.698 537.942L333.695 538.041L333.623 538.104C330.942 540.446 327.705 541.945 324.273 542.433C320.842 542.921 317.352 542.379 314.192 540.868C311.031 539.357 308.326 536.936 306.377 533.876C304.428 530.815 303.312 527.235 303.153 523.536Z" fill="#E6E6E6"/>
<path opacity="0.15" d="M306.067 531.194C306.1 531.914 306.171 532.632 306.277 533.344C304.456 530.351 303.408 526.896 303.24 523.33C303.215 522.784 303.162 522.24 303.09 521.698C304.859 524.521 305.887 527.8 306.067 531.194Z" fill="black"/>
<path opacity="0.15" d="M300.185 506.89C298.701 507.577 297.138 508.05 295.537 508.296C294.92 507.599 294.351 506.856 293.834 506.072C295.877 506.804 298.038 507.082 300.185 506.89Z" fill="black"/>
<path opacity="0.15" d="M293.335 500.323C293.17 502.051 293.214 503.795 293.468 505.512C292.581 504.069 291.874 502.509 291.364 500.87L291.282 500.606L291.541 500.584C292.143 500.529 292.742 500.442 293.335 500.323Z" fill="black"/>
<path opacity="0.15" d="M295.064 481.345C296.785 479.256 298.893 477.574 301.255 476.406C303.616 475.238 306.18 474.609 308.781 474.559C310.435 474.537 312.067 474.142 313.569 473.401C315.071 472.659 316.41 471.587 317.498 470.255L317.652 470.066C319.079 468.331 320.698 466.788 322.475 465.474L322.61 465.374L322.73 465.494C323.864 466.639 325.133 467.619 326.505 468.412C325.507 467.297 324.68 466.02 324.054 464.63L323.968 464.447L324.133 464.344C327.718 462.099 331.748 460.793 335.895 460.532C340.042 460.271 344.188 461.062 347.994 462.842C351.8 464.621 355.16 467.338 357.798 470.771C360.436 474.205 362.278 478.256 363.174 482.596C361.448 479.354 359.139 476.51 356.379 474.229C353.619 471.948 350.463 470.276 347.094 469.31C343.726 468.344 340.212 468.102 336.756 468.6C333.299 469.097 329.97 470.324 326.96 472.208L326.795 472.311L326.881 472.494C327.507 473.884 328.334 475.161 329.332 476.276C327.96 475.483 326.691 474.503 325.557 473.358L325.437 473.238L325.301 473.338C323.525 474.652 321.905 476.195 320.479 477.93L320.325 478.119C319.237 479.451 317.898 480.523 316.396 481.265C314.894 482.007 313.262 482.401 311.608 482.423C307.283 482.501 303.118 484.182 299.821 487.179C296.525 490.176 294.303 494.304 293.533 498.858C292.618 498.683 291.715 498.447 290.828 498.154L290.708 498.115L290.686 497.983C290.201 495.036 290.343 492.01 291.101 489.129C291.858 486.249 293.213 483.588 295.064 481.345Z" fill="black"/>
<path d="M274.117 352.721C285.13 341.295 291.43 324.773 291.43 307.342C291.43 307.227 291.43 307.112 291.43 306.997L291.429 306.672C291.425 295.277 294.25 284.085 299.614 274.241L300.036 273.467L300.637 274.09C305.293 278.914 310.663 282.878 316.53 285.823C311.958 281.406 308.128 275.366 304.612 267.075L304.445 266.682L304.698 266.346C310.141 259.097 316.988 253.196 324.766 249.048C332.544 244.901 341.07 242.605 349.757 242.32C358.444 242.034 367.085 243.766 375.087 247.395C383.089 251.024 390.26 256.464 396.109 263.342C399.676 267.574 404.037 270.955 408.907 273.263C413.776 275.571 419.046 276.756 424.373 276.739L425.126 276.735C432.081 276.734 439.01 277.644 445.759 279.443L446.274 279.581L446.255 280.148C446.082 285.515 446.564 290.883 447.689 296.117C448.088 291.165 449.213 286.311 451.024 281.733L451.255 281.124L451.838 281.331C470.981 288.127 487.237 301.993 497.696 320.444C508.156 338.895 512.134 360.727 508.92 382.031C505.707 403.334 495.51 422.718 480.156 436.712C464.803 450.705 445.295 458.394 425.126 458.402C420.353 458.402 415.589 457.977 410.882 457.13C383.433 452.177 357.064 453.455 332.509 460.93C327.104 462.57 321.511 463.4 315.892 463.395C314.936 463.395 313.946 463.369 312.949 463.317L311.795 463.258L312.435 462.227C314.319 459.14 316.557 456.318 319.097 453.827C314.577 456.08 310.348 458.952 306.519 462.369L306.289 462.574L305.991 462.523C294.997 460.566 284.727 455.379 276.328 447.54C267.929 439.702 261.73 429.521 258.424 418.133C255.118 406.745 254.835 394.598 257.606 383.047C260.377 371.497 266.093 360.998 274.117 352.721Z" fill="#E6E6E6"/>
<g opacity="0.15">
<path d="M329.285 246.86C331.36 250.544 333.912 253.894 336.867 256.811C332.637 254.686 328.66 252.027 325.021 248.89C326.417 248.154 327.838 247.477 329.285 246.86Z" fill="black"/>
<path d="M294.453 323.709C291.18 327.107 288.278 330.891 285.801 334.988C289.529 326.318 291.45 316.885 291.43 307.342C291.43 307.227 291.43 307.112 291.43 306.997L291.429 306.672C291.425 295.277 294.25 284.085 299.614 274.241L300.036 273.467L300.637 274.09C303.955 277.521 307.638 280.522 311.612 283.032C310.588 298.707 304.471 313.316 294.453 323.709Z" fill="black"/>
<path d="M311.766 277.66L311.766 277.985C311.767 278.1 311.767 278.215 311.767 278.33C311.767 278.962 311.756 279.592 311.74 280.222C308.906 276.143 306.515 271.732 304.612 267.075L304.445 266.682L304.698 266.346C307.873 262.119 311.53 258.335 315.584 255.081C313.06 262.303 311.766 269.95 311.766 277.66Z" fill="black"/>
<path d="M274.117 352.721C277.011 349.708 279.584 346.36 281.786 342.738C277.842 351.727 275.898 361.572 276.104 371.501C276.311 381.429 278.664 391.171 282.979 399.964C287.293 408.757 293.452 416.361 300.973 422.182C308.494 428.002 317.172 431.879 326.328 433.511L326.625 433.563L326.855 433.358C330.685 429.94 334.913 427.069 339.434 424.815C336.893 427.306 334.655 430.128 332.772 433.215L332.131 434.246L333.286 434.305C334.283 434.357 335.273 434.383 336.229 434.383C341.848 434.388 347.44 433.559 352.846 431.918C377.401 424.443 403.77 423.165 431.219 428.119C435.925 428.965 440.69 429.39 445.462 429.39C466.266 429.407 486.345 421.215 501.855 406.381C494.975 421.93 484.113 435.072 470.531 444.28C456.95 453.488 441.205 458.385 425.126 458.402C420.353 458.402 415.589 457.977 410.882 457.13C383.433 452.177 357.064 453.455 332.509 460.93C327.104 462.57 321.511 463.4 315.892 463.395C314.936 463.395 313.946 463.369 312.949 463.317L311.795 463.258L312.435 462.227C314.319 459.14 316.557 456.318 319.097 453.827C314.577 456.08 310.348 458.952 306.519 462.37L306.289 462.575L305.991 462.523C294.997 460.566 284.727 455.379 276.328 447.54C267.929 439.702 261.73 429.521 258.424 418.133C255.118 406.745 254.835 394.598 257.606 383.048C260.377 371.497 266.093 360.998 274.117 352.721Z" fill="black"/>
</g>
<path d="M42.8004 531.605C33.0754 531.604 23.6659 527.913 16.2447 521.189C8.82363 514.464 3.87189 505.142 2.26991 494.879L2.23679 494.662L2.36766 494.493C4.54861 491.696 6.38113 488.607 7.81937 485.305C6.22965 487.16 4.42861 488.795 2.45846 490.171L1.80091 490.639L1.76299 489.796C1.72987 489.067 1.7133 488.344 1.7133 487.646C1.70999 483.541 2.23942 479.455 3.28643 475.506C8.05654 457.568 8.87221 438.305 5.71101 418.253C5.17086 414.814 4.89944 411.334 4.89961 407.847C4.90446 393.113 9.81122 378.862 18.7413 367.646C27.6713 356.429 40.0415 348.98 53.6367 346.632C67.2319 344.285 81.1643 347.191 92.9391 354.832C104.714 362.473 113.562 374.348 117.9 388.333L118.031 388.759L117.643 388.927C114.721 390.25 111.624 391.073 108.463 391.364C111.803 392.186 115.229 392.538 118.654 392.411L119.016 392.398L119.104 392.774C120.252 397.704 120.833 402.766 120.832 407.847L120.83 408.397C120.819 412.288 121.575 416.138 123.048 419.696C124.521 423.253 126.678 426.439 129.379 429.045C133.768 433.317 137.24 438.557 139.556 444.402C141.872 450.248 142.977 456.56 142.795 462.906C142.613 469.252 141.148 475.481 138.501 481.163C135.854 486.845 132.088 491.847 127.462 495.823L127.248 496.009L126.997 495.886C121.706 493.318 117.851 490.52 115.033 487.18C116.912 491.466 119.442 495.389 122.52 498.79L122.918 499.229L122.424 499.537C116.142 503.456 109 505.52 101.728 505.517L101.52 505.516C101.447 505.516 101.373 505.516 101.3 505.516C95.9293 505.455 90.6012 506.543 85.6283 508.715C80.6554 510.887 76.138 514.099 72.341 518.164C68.5014 522.396 63.9106 525.765 58.8379 528.073C53.7652 530.381 48.3127 531.582 42.8004 531.605Z" fill="#E4E4E4"/>
<path d="M28.26 600.869C28.0816 600.869 27.9092 600.8 27.7745 600.675C27.6399 600.55 27.5519 600.377 27.5268 600.188C27.4953 599.951 24.4094 576.139 27.1809 544.492C29.7403 515.266 37.9597 473.169 62.5819 438.595C62.6408 438.512 62.7145 438.443 62.7987 438.39C62.8829 438.338 62.976 438.303 63.0725 438.289C63.1691 438.275 63.2673 438.282 63.3615 438.309C63.4557 438.335 63.5441 438.381 63.6216 438.445C63.6991 438.508 63.7642 438.587 63.8132 438.677C63.8622 438.767 63.8941 438.867 63.9071 438.97C63.9201 439.073 63.9139 439.178 63.8889 439.279C63.864 439.38 63.8207 439.474 63.7615 439.557C39.352 473.832 31.1989 515.62 28.6575 544.64C25.9022 576.103 28.9638 599.729 28.9951 599.964C29.0099 600.077 29.0021 600.191 28.9719 600.3C28.9418 600.41 28.8901 600.51 28.8204 600.596C28.7508 600.682 28.6646 600.751 28.568 600.798C28.4713 600.845 28.3662 600.869 28.26 600.869Z" fill="#3F3D56"/>
<path d="M40.5685 484.311C40.4119 484.311 40.2592 484.258 40.1325 484.16C40.0057 484.061 39.9113 483.923 39.8628 483.763C39.8143 483.604 39.8143 483.432 39.8626 483.273C39.911 483.113 40.0053 482.974 40.132 482.876C47.1478 477.795 54.7269 473.667 62.6949 470.587C75.1432 465.711 94.0728 461.29 113.561 467.926C113.654 467.958 113.74 468.008 113.815 468.075C113.889 468.143 113.951 468.225 113.996 468.317C114.041 468.41 114.068 468.511 114.077 468.615C114.085 468.719 114.074 468.824 114.044 468.924C114.015 469.023 113.967 469.115 113.904 469.195C113.841 469.275 113.764 469.34 113.677 469.388C113.591 469.436 113.496 469.465 113.399 469.474C113.302 469.482 113.204 469.47 113.111 469.438C94.0224 462.939 75.4359 467.286 63.2048 472.077C55.3649 475.104 47.9074 479.163 41.0038 484.16C40.8774 484.258 40.725 484.311 40.5685 484.311Z" fill="#3F3D56"/>
<path d="M120.052 451.387C120.908 451.137 121.703 450.69 122.38 450.076C123.057 449.462 123.601 448.697 123.971 447.834C124.342 446.971 124.532 446.032 124.527 445.083C124.522 444.133 124.322 443.196 123.942 442.338L137.025 396.7L127.402 394.659L115.436 439.394C114.131 440.173 113.138 441.436 112.646 442.946C112.153 444.456 112.196 446.106 112.765 447.584C113.334 449.063 114.39 450.266 115.733 450.967C117.076 451.668 118.613 451.817 120.052 451.387Z" fill="#FFB6B6"/>
<path d="M137.788 383.366C136.399 382.777 134.87 382.677 133.425 383.083V383.092C132.938 383.217 132.466 383.404 132.021 383.65C131.532 383.906 131.075 384.227 130.661 384.604C129.764 385.4 129.071 386.428 128.647 387.59L122.271 399.476C122.088 399.814 121.975 400.19 121.942 400.578C121.908 400.966 121.954 401.358 122.077 401.725C122.196 402.095 122.389 402.432 122.642 402.714C122.895 402.997 123.202 403.217 123.543 403.36L124.92 403.936L131.464 406.686L133.875 407.706L135.5 408.387C135.84 408.53 136.204 408.593 136.569 408.572C136.933 408.551 137.289 408.445 137.612 408.263C137.935 408.081 138.217 407.826 138.44 407.517C138.662 407.207 138.819 406.849 138.9 406.469L141.779 393.155C142.46 391.29 142.423 389.213 141.674 387.378C140.926 385.543 139.528 384.1 137.788 383.366Z" fill="#3F3D56"/>
<path d="M156.75 588.729H163.412L166.582 561.236H156.75V588.729Z" fill="#FFB6B6"/>
<path d="M153.234 601.079H158.011L158.864 596.253L161.048 601.079H173.719C174.326 601.079 174.918 600.871 175.407 600.486C175.896 600.101 176.258 599.558 176.438 598.938C176.619 598.318 176.61 597.652 176.412 597.037C176.214 596.423 175.837 595.892 175.337 595.523L165.219 588.046V583.167L154.576 583.847L153.234 601.079Z" fill="#2F2E41"/>
<path d="M91.9609 574.587L97.6907 578.223L113.525 556.306L105.068 550.94L91.9609 574.587Z" fill="#FFB6B6"/>
<path d="M83.049 583.29L87.1581 585.897L90.1924 582.212L89.7701 587.555L100.669 594.47C101.191 594.802 101.799 594.946 102.403 594.882C103.008 594.817 103.577 594.548 104.028 594.113C104.48 593.678 104.789 593.1 104.912 592.464C105.034 591.827 104.963 591.166 104.709 590.575L99.5707 578.622L101.897 574.425L92.4184 569.201L83.049 583.29Z" fill="#2F2E41"/>
<path d="M159.723 412.943L162.961 435.024L132.205 435.458L136.253 414.242L159.723 412.943Z" fill="#FFB6B6"/>
<path d="M163.079 434.745L171.863 457.539L172.503 518.494L165.007 576.693H156.711L153.313 519.442L144.953 480.269L136.708 521.24L111.072 561.343H98.4742L121.634 517.151L124.315 469.012C124.315 469.012 122.644 448.591 131.194 436.54L133.275 430.107L163.079 434.745Z" fill="#2F2E41"/>
<path d="M163.505 392.607C163.487 392.409 163.46 392.201 163.425 392.002C162.76 387.238 160.358 382.949 156.745 380.075C153.132 377.201 148.602 375.976 144.146 376.667C139.962 377.338 136.15 379.619 133.425 383.083V383.092C133.284 383.272 133.151 383.461 133.019 383.65C132.78 383.971 132.559 384.311 132.347 384.651C130.433 387.746 129.447 391.392 129.521 395.102V395.111C129.549 396.541 129.736 397.962 130.078 399.344C130.666 401.762 131.129 404.213 131.464 406.686C131.694 408.255 131.871 409.795 132.003 411.297C132.083 412.053 132.144 412.799 132.197 413.527V413.537C132.462 417.137 132.551 420.368 132.63 422.872C132.665 424.233 132.701 425.367 132.763 426.236C132.764 426.293 132.77 426.35 132.78 426.406C132.848 426.99 133.082 427.538 133.451 427.974C133.497 428.036 133.547 428.093 133.602 428.145C133.993 428.522 134.467 428.788 134.979 428.919C135.157 428.957 135.337 428.976 135.518 428.976H135.571L140.72 426.406L144.782 424.384L158.568 417.505C159.133 417.493 159.681 417.296 160.138 416.941C160.596 416.587 160.942 416.091 161.129 415.521V415.511C161.147 415.436 161.173 415.36 161.191 415.275C161.933 412.148 163.248 408.793 163.716 403.398C163.778 402.623 163.831 401.82 163.858 400.96V400.951C163.935 398.164 163.817 395.375 163.505 392.607Z" fill="#3F3D56"/>
<path d="M144.359 373.679C151.54 373.679 157.362 367.45 157.362 359.766C157.362 352.082 151.54 345.853 144.359 345.853C137.177 345.853 131.355 352.082 131.355 359.766C131.355 367.45 137.177 373.679 144.359 373.679Z" fill="#FFB6B6"/>
<path d="M130.475 381.391C127.736 381.395 125.11 382.561 123.173 384.633C121.236 386.706 120.146 389.516 120.143 392.446V415.36C120.142 417.936 120.982 420.431 122.519 422.414C124.056 424.396 126.193 425.742 128.559 426.217H128.568C129.197 426.342 129.835 426.406 130.475 426.406H144.782V381.391H130.475Z" fill="#7C01FA"/>
<path d="M130.661 383.65V400.365C130.661 400.876 130.851 401.366 131.188 401.728C131.526 402.089 131.984 402.292 132.462 402.292C132.94 402.292 133.398 402.089 133.736 401.728C134.074 401.366 134.264 400.876 134.264 400.365V383.65H130.661Z" fill="#3F3D56"/>
<path d="M138.6 411.297H128.126C127.827 411.297 127.532 411.36 127.256 411.483C126.98 411.606 126.729 411.786 126.518 412.012C126.308 412.238 126.141 412.507 126.027 412.803C125.913 413.098 125.855 413.415 125.856 413.735V420.434C125.856 421.079 126.095 421.698 126.52 422.155C126.946 422.612 127.523 422.87 128.126 422.872H138.6C139.204 422.87 139.783 422.613 140.21 422.156C140.637 421.699 140.877 421.08 140.879 420.434V413.735C140.879 413.415 140.82 413.098 140.705 412.802C140.591 412.506 140.423 412.237 140.211 412.011C140 411.785 139.749 411.605 139.472 411.483C139.196 411.36 138.899 411.297 138.6 411.297Z" fill="#3F3D56"/>
<path d="M157.949 409.178C160.805 405.299 162.313 400.478 162.214 395.541C162.214 385.613 156.687 377.537 149.894 377.537C146.247 377.537 142.811 379.869 140.467 383.935L141.49 384.61C143.61 380.932 146.673 378.823 149.894 378.823C156.024 378.823 161.012 386.323 161.012 395.541C161.112 400.174 159.705 404.7 157.032 408.346L157.949 409.178Z" fill="#7C01FA"/>
<path d="M186.286 442.794C186.679 441.943 186.893 441.01 186.913 440.06C186.932 439.111 186.757 438.169 186.399 437.3C186.041 436.43 185.51 435.656 184.842 435.03C184.175 434.405 183.387 433.943 182.534 433.679L159.28 392.938L151.471 399.292L174.834 438.539C174.514 440.101 174.74 441.734 175.47 443.129C176.199 444.524 177.382 445.584 178.794 446.109C180.205 446.633 181.747 446.586 183.128 445.975C184.509 445.364 185.633 444.232 186.286 442.794Z" fill="#FFB6B6"/>
<path d="M167.355 397.908L163.425 392.002L161.323 388.847L159.954 386.787C159.525 385.88 158.927 385.076 158.197 384.424C156.951 383.309 155.385 382.687 153.76 382.663C152.136 382.639 150.554 383.215 149.281 384.294C148.007 385.372 147.12 386.888 146.769 388.584C146.417 390.281 146.623 392.056 147.352 393.609L151.432 406.601C151.55 406.971 151.741 407.309 151.991 407.593C152.242 407.877 152.547 408.1 152.885 408.247C153.224 408.394 153.588 408.462 153.953 408.445C154.317 408.428 154.675 408.328 155 408.151L156.316 407.433L158.391 406.299L160.255 405.288H160.263L163.717 403.398L164.891 402.765L166.445 401.914C166.77 401.735 167.055 401.483 167.28 401.176C167.506 400.868 167.667 400.513 167.754 400.133C167.84 399.753 167.849 399.358 167.78 398.974C167.711 398.59 167.566 398.227 167.355 397.908Z" fill="#3F3D56"/>
<path d="M781.867 602H2.52522C2.41837 602 2.3125 601.978 2.21369 601.935C2.11487 601.891 2.02506 601.827 1.94938 601.747C1.8737 601.666 1.81366 601.57 1.77269 601.465C1.73172 601.359 1.71063 601.246 1.71063 601.131C1.71063 601.017 1.73172 600.904 1.77269 600.798C1.81366 600.693 1.8737 600.597 1.94938 600.516C2.02506 600.435 2.11487 600.372 2.21369 600.328C2.3125 600.285 2.41837 600.262 2.52522 600.263H781.867C782.083 600.263 782.289 600.354 782.441 600.517C782.594 600.68 782.679 600.901 782.679 601.131C782.679 601.362 782.594 601.583 782.441 601.746C782.289 601.909 782.083 602 781.867 602Z" fill="#CCCCCC"/>
<path d="M414.758 529.179C411.344 522.416 410.867 513.551 415.059 507.309C417.132 515.368 421.803 522.383 428.245 527.113C430.736 528.927 433.683 530.668 434.535 533.76C434.983 535.731 434.707 537.811 433.763 539.571C432.821 541.308 431.675 542.909 430.353 544.334L430.232 544.818C424.052 540.899 418.172 535.942 414.758 529.179Z" fill="#E6E6E6"/>
<path d="M205.455 358.154C202.04 351.39 201.564 342.526 205.756 336.284C207.829 344.343 212.5 351.358 218.942 356.087C221.433 357.902 224.379 359.642 225.231 362.734C225.68 364.706 225.403 366.786 224.46 368.545C223.518 370.282 222.372 371.883 221.05 373.309L220.929 373.793C214.749 369.874 208.869 364.917 205.455 358.154Z" fill="#E6E6E6"/>
<path d="M136.428 348.414V348.424C136.429 349.029 136.357 349.632 136.213 350.218C136.19 350.32 136.163 350.428 136.131 350.53V350.535C135.824 351.581 135.296 352.536 134.586 353.326C133.877 354.117 133.006 354.72 132.042 355.09C131.901 355.149 131.755 355.198 131.608 355.242C131.3 355.337 130.986 355.406 130.667 355.447C130.381 355.491 130.093 355.512 129.804 355.511C129.578 355.512 129.353 355.5 129.128 355.476C128.602 355.42 128.085 355.293 127.589 355.1C127.511 355.076 127.435 355.047 127.36 355.012C127.323 354.998 127.286 354.982 127.251 354.963C126.422 354.592 125.672 354.045 125.047 353.354C124.423 352.664 123.935 351.844 123.615 350.946C123.295 350.048 123.149 349.09 123.186 348.13C123.223 347.169 123.442 346.227 123.829 345.36L123.834 345.355C124.158 344.627 124.599 343.966 125.136 343.4C126.375 342.077 128.054 341.335 129.804 341.337C129.891 341.336 129.978 341.339 130.064 341.347C131.072 341.392 132.058 341.681 132.946 342.193C133.834 342.706 134.601 343.427 135.19 344.304C135.699 345.06 136.063 345.917 136.259 346.826C136.371 347.347 136.427 347.88 136.428 348.414Z" fill="#2F2E41"/>
<path d="M128.784 344.117C128.201 341.768 126.943 339.676 125.187 338.136C123.431 336.596 121.267 335.686 119 335.536C116.734 335.385 114.481 336.002 112.561 337.298C110.64 338.595 109.15 340.505 108.301 342.758C106.878 346.534 107.4 350.819 106.548 354.787C105.688 358.39 103.748 361.592 101.025 363.903C98.3021 366.213 94.9458 367.505 91.471 367.579L104.362 373.137C105.739 373.89 107.282 374.224 108.824 374.104C111.067 373.697 112.628 371.405 113.26 369.066C113.892 366.728 113.841 364.244 114.241 361.848C114.76 358.904 115.942 356.14 117.685 353.795C119.428 351.45 121.679 349.595 124.243 348.391C125.694 347.728 127.307 347.228 128.334 345.945C129.36 344.662 129.303 342.241 127.815 341.676" fill="#2F2E41"/>
<path d="M149.675 344.172C147.926 340.084 143.312 340.916 139.14 341.455C137.057 341.799 135.083 342.681 133.391 344.025C131.698 345.369 130.337 347.134 129.426 349.168C127.642 353.289 127.302 357.959 128.465 362.327C129.089 365.301 130.578 367.988 132.719 370C134.923 371.896 145.28 376.379 146.142 372.519C145.064 377.555 147.233 376.767 150.442 380.627C152.105 375.284 152.884 365.216 154.547 359.873L155.297 357.46C155.825 355.765 156.353 354.067 156.734 352.327C157.213 350.141 157.398 347.635 156.129 345.848C154.86 344.06 151.664 343.991 151.022 346.128" fill="#2F2E41"/>
<path d="M147.581 361.186L147.025 357.4C147.403 352.692 146.786 345.202 149.675 344.172L151.441 346.062C150.324 346.46 148.199 353.502 147.581 361.186Z" fill="#FF6584"/>
</g>
<defs>
<linearGradient id="paint0_linear_0_608" x1="711.741" y1="389.209" x2="711.741" y2="512.795" gradientUnits="userSpaceOnUse">
<stop offset="0.432362" stop-color="#744FC6"/>
<stop offset="0.912623" stop-color="#7C01FA"/>
</linearGradient>
<linearGradient id="paint1_linear_0_608" x1="627.491" y1="59.6735" x2="627.491" y2="393.284" gradientUnits="userSpaceOnUse">
<stop offset="0.380278" stop-color="#744FC6"/>
<stop offset="0.761579" stop-color="#7C01FA"/>
</linearGradient>
<clipPath id="clip0_0_608">
<rect width="824" height="602" fill="white"/>
</clipPath>
</defs>
</svg>
