<svg width="28" height="36" viewBox="0 0 28 36" fill="none" xmlns="http://www.w3.org/2000/svg">
<path d="M13.9803 35.4516C15.0264 35.4516 16.0297 34.9973 16.7695 34.1888C17.5092 33.3802 17.9248 32.2836 17.9248 31.1401H10.0357C10.0357 32.2836 10.4513 33.3802 11.191 34.1888C11.9308 34.9973 12.9341 35.4516 13.9803 35.4516ZM15.9427 3.32881C15.9702 3.02907 15.94 2.72634 15.8539 2.44016C15.7678 2.15398 15.6278 1.89069 15.4429 1.66729C15.258 1.44389 15.0323 1.26532 14.7804 1.14311C14.5284 1.0209 14.2559 0.957764 13.9803 0.957764C13.7046 0.957764 13.4321 1.0209 13.1802 1.14311C12.9283 1.26532 12.7026 1.44389 12.5177 1.66729C12.3328 1.89069 12.1928 2.15398 12.1067 2.44016C12.0206 2.72634 11.9903 3.02907 12.0178 3.32881C9.78862 3.82442 7.78459 5.14689 6.34511 7.07227C4.90563 8.99765 4.11916 11.4076 4.11887 13.8941C4.11887 16.2611 3.13273 26.8286 0.174316 28.9843H27.7862C24.8278 26.8286 23.8417 16.2611 23.8417 13.8941C23.8417 8.67722 20.4493 4.32261 15.9427 3.32881Z" fill="black"/>
</svg>
