<svg width="32" height="32" viewBox="0 0 32 32" fill="none" xmlns="http://www.w3.org/2000/svg">
<path d="M31.0243 14.9637C31.0243 22.9432 24.2881 29.4118 15.9799 29.4118C14.4899 29.414 13.006 29.2017 11.5663 28.7802C10.468 29.3912 7.94622 30.5635 3.70371 31.3272C3.3276 31.3933 3.04176 30.964 3.19032 30.5801C3.85603 28.8545 4.45781 26.5552 4.63834 24.4582C2.33467 21.9195 0.935547 18.5964 0.935547 14.9637C0.935547 6.98427 7.67166 0.515656 15.9799 0.515656C24.2881 0.515656 31.0243 6.98427 31.0243 14.9637ZM10.3383 14.9637C10.3383 14.4163 10.1401 13.8913 9.78747 13.5043C9.4348 13.1172 8.95648 12.8997 8.45772 12.8997C7.95897 12.8997 7.48065 13.1172 7.12798 13.5043C6.77531 13.8913 6.57718 14.4163 6.57718 14.9637C6.57718 15.5111 6.77531 16.0361 7.12798 16.4232C7.48065 16.8103 7.95897 17.0278 8.45772 17.0278C8.95648 17.0278 9.4348 16.8103 9.78747 16.4232C10.1401 16.0361 10.3383 15.5111 10.3383 14.9637ZM17.8604 14.9637C17.8604 14.4163 17.6623 13.8913 17.3096 13.5043C16.957 13.1172 16.4787 12.8997 15.9799 12.8997C15.4811 12.8997 15.0028 13.1172 14.6502 13.5043C14.2975 13.8913 14.0994 14.4163 14.0994 14.9637C14.0994 15.5111 14.2975 16.0361 14.6502 16.4232C15.0028 16.8103 15.4811 17.0278 15.9799 17.0278C16.4787 17.0278 16.957 16.8103 17.3096 16.4232C17.6623 16.0361 17.8604 15.5111 17.8604 14.9637ZM23.5021 17.0278C24.0008 17.0278 24.4792 16.8103 24.8318 16.4232C25.1845 16.0361 25.3826 15.5111 25.3826 14.9637C25.3826 14.4163 25.1845 13.8913 24.8318 13.5043C24.4792 13.1172 24.0008 12.8997 23.5021 12.8997C23.0033 12.8997 22.525 13.1172 22.1723 13.5043C21.8197 13.8913 21.6215 14.4163 21.6215 14.9637C21.6215 15.5111 21.8197 16.0361 22.1723 16.4232C22.525 16.8103 23.0033 17.0278 23.5021 17.0278Z" fill="black"/>
</svg>
