<svg width="55" height="55" viewBox="0 0 55 55" fill="none" xmlns="http://www.w3.org/2000/svg">
<g id="ant-design:safety-outlined">
<path id="Vector" d="M27.5 3.4375L6.875 10.3125V30.9375C6.875 42.3296 16.1079 51.5625 27.5 51.5625C38.8921 51.5625 48.125 42.3296 48.125 30.9375V10.3125L27.5 3.4375ZM44.2578 30.9375C44.2578 40.1919 36.7544 47.6953 27.5 47.6953C18.2456 47.6953 10.7422 40.1919 10.7422 30.9375V13.2129L27.5 7.30469L44.2578 13.2129V30.9375Z" fill="#FC9B1D"/>
<path id="Vector_2" d="M20.3242 25.5179C20.145 25.3379 19.932 25.1951 19.6974 25.0976C19.4628 25.0001 19.2113 24.9499 18.9573 24.9499C18.7032 24.9499 18.4517 25.0001 18.2171 25.0976C17.9826 25.1951 17.7695 25.3379 17.5903 25.5179C17.4103 25.6972 17.2674 25.9102 17.17 26.1448C17.0725 26.3793 17.0223 26.6309 17.0223 26.8849C17.0223 27.1389 17.0725 27.3904 17.17 27.625C17.2674 27.8596 17.4103 28.0726 17.5903 28.2518L24.5405 35.202L24.6533 35.3148C24.8228 35.4847 25.0242 35.6194 25.2458 35.7113C25.4675 35.8033 25.7051 35.8506 25.9451 35.8506C26.185 35.8506 26.4226 35.8033 26.6443 35.7113C26.8659 35.6194 27.0673 35.4847 27.2368 35.3148L39.2412 23.3104C39.4111 23.1409 39.5458 22.9396 39.6377 22.7179C39.7297 22.4962 39.777 22.2586 39.777 22.0187C39.777 21.7787 39.7297 21.5411 39.6377 21.3195C39.5458 21.0978 39.4111 20.8965 39.2412 20.7269L39.0908 20.5765C38.9213 20.4067 38.72 20.272 38.4983 20.18C38.2766 20.0881 38.039 20.0408 37.7991 20.0408C37.5591 20.0408 37.3215 20.0881 37.0998 20.18C36.8782 20.272 36.6768 20.4067 36.5073 20.5765L25.9424 31.1361L20.3242 25.5179Z" fill="#FC9B1D"/>
</g>
</svg>
