<svg width="53" height="53" viewBox="0 0 53 53" fill="none" xmlns="http://www.w3.org/2000/svg">
<g id="bi:people">
<path id="Vector" d="M49.6875 46.375C49.6875 46.375 53 46.375 53 43.0625C53 39.75 49.6875 29.8125 36.4375 29.8125C23.1875 29.8125 19.875 39.75 19.875 43.0625C19.875 46.375 23.1875 46.375 23.1875 46.375H49.6875ZM23.2604 43.0625C23.2359 43.0591 23.2116 43.0547 23.1875 43.0493C23.1908 42.1748 23.7407 39.6374 25.705 37.3517C27.5335 35.2086 30.7466 33.125 36.4375 33.125C42.1251 33.125 45.3382 35.2119 47.17 37.3517C49.1343 39.6374 49.6809 42.1781 49.6875 43.0493L49.661 43.0559C49.6456 43.0585 49.6301 43.0607 49.6146 43.0625H23.2604ZM36.4375 23.1875C38.1946 23.1875 39.8797 22.4895 41.1221 21.2471C42.3645 20.0047 43.0625 18.3196 43.0625 16.5625C43.0625 14.8054 42.3645 13.1203 41.1221 11.8779C39.8797 10.6355 38.1946 9.9375 36.4375 9.9375C34.6804 9.9375 32.9953 10.6355 31.7529 11.8779C30.5105 13.1203 29.8125 14.8054 29.8125 16.5625C29.8125 18.3196 30.5105 20.0047 31.7529 21.2471C32.9953 22.4895 34.6804 23.1875 36.4375 23.1875ZM46.375 16.5625C46.375 17.8675 46.118 19.1597 45.6186 20.3654C45.1191 21.5711 44.3872 22.6666 43.4644 23.5894C42.5416 24.5122 41.4461 25.2441 40.2404 25.7436C39.0347 26.243 37.7425 26.5 36.4375 26.5C35.1325 26.5 33.8403 26.243 32.6346 25.7436C31.4289 25.2441 30.3334 24.5122 29.4106 23.5894C28.4878 22.6666 27.7559 21.5711 27.2564 20.3654C26.757 19.1597 26.5 17.8675 26.5 16.5625C26.5 13.9269 27.547 11.3993 29.4106 9.53563C31.2743 7.67198 33.8019 6.625 36.4375 6.625C39.0731 6.625 41.6007 7.67198 43.4644 9.53563C45.328 11.3993 46.375 13.9269 46.375 16.5625ZM22.9755 30.74C21.6504 30.3228 20.2845 30.0485 18.9011 29.9218C18.1238 29.8479 17.3433 29.8114 16.5625 29.8125C3.3125 29.8125 0 39.75 0 43.0625C0 45.2719 1.10306 46.375 3.3125 46.375H17.278C16.7869 45.3409 16.542 44.2071 16.5625 43.0625C16.5625 39.7169 17.8113 36.2984 20.1731 33.443C20.9781 32.4691 21.9155 31.5582 22.9755 30.74ZM16.2975 33.125C14.337 36.0707 13.278 39.5241 13.25 43.0625H3.3125C3.3125 42.2012 3.85575 39.6506 5.83 37.3517C7.63531 35.245 10.7723 33.1913 16.2975 33.1283V33.125ZM4.96875 18.2188C4.96875 15.5832 6.01573 13.0555 7.87938 11.1919C9.74302 9.32823 12.2707 8.28125 14.9062 8.28125C17.5418 8.28125 20.0695 9.32823 21.9331 11.1919C23.7968 13.0555 24.8438 15.5832 24.8438 18.2188C24.8438 20.8543 23.7968 23.382 21.9331 25.2456C20.0695 27.1093 17.5418 28.1562 14.9062 28.1562C12.2707 28.1562 9.74302 27.1093 7.87938 25.2456C6.01573 23.382 4.96875 20.8543 4.96875 18.2188ZM14.9062 11.5938C13.1492 11.5938 11.4641 12.2917 10.2217 13.5342C8.97924 14.7766 8.28125 16.4617 8.28125 18.2188C8.28125 19.9758 8.97924 21.6609 10.2217 22.9033C11.4641 24.1458 13.1492 24.8438 14.9062 24.8438C16.6633 24.8438 18.3484 24.1458 19.5908 22.9033C20.8333 21.6609 21.5312 19.9758 21.5312 18.2188C21.5312 16.4617 20.8333 14.7766 19.5908 13.5342C18.3484 12.2917 16.6633 11.5938 14.9062 11.5938Z" fill="#FC9B1C"/>
</g>
</svg>
