<svg width="52" height="52" viewBox="0 0 52 52" fill="none" xmlns="http://www.w3.org/2000/svg">
<g id="carbon:network-1">
<path id="Vector" d="M26 32.5C24.7144 32.5 23.4577 32.1188 22.3888 31.4046C21.3199 30.6903 20.4868 29.6752 19.9948 28.4874C19.5028 27.2997 19.3741 25.9928 19.6249 24.7319C19.8757 23.471 20.4948 22.3129 21.4038 21.4038C22.3129 20.4948 23.471 19.8757 24.7319 19.6249C25.9928 19.3741 27.2997 19.5028 28.4874 19.9948C29.6752 20.4868 30.6903 21.3199 31.4046 22.3888C32.1188 23.4577 32.5 24.7144 32.5 26C32.4979 27.7232 31.8123 29.3753 30.5938 30.5938C29.3753 31.8123 27.7232 32.4979 26 32.5ZM26 22.75C25.3572 22.75 24.7289 22.9406 24.1944 23.2977C23.6599 23.6548 23.2434 24.1624 22.9974 24.7563C22.7514 25.3501 22.687 26.0036 22.8125 26.634C22.9379 27.2645 23.2474 27.8436 23.7019 28.2981C24.1564 28.7526 24.7355 29.0622 25.366 29.1876C25.9964 29.313 26.6499 29.2486 27.2437 29.0026C27.8376 28.7566 28.3452 28.3401 28.7023 27.8056C29.0594 27.2711 29.25 26.6428 29.25 26C29.2491 25.1383 28.9065 24.3122 28.2972 23.7029C27.6878 23.0935 26.8617 22.7509 26 22.75ZM8.125 32.5C6.83942 32.5 5.58272 32.1188 4.5138 31.4046C3.44488 30.6903 2.61176 29.6752 2.11979 28.4874C1.62782 27.2997 1.49909 25.9928 1.7499 24.7319C2.0007 23.471 2.61977 22.3129 3.52881 21.4038C4.43785 20.4948 5.59604 19.8757 6.85692 19.6249C8.11779 19.3741 9.42473 19.5028 10.6124 19.9948C11.8002 20.4868 12.8153 21.3199 13.5296 22.3888C14.2438 23.4577 14.625 24.7144 14.625 26C14.6229 27.7232 13.9373 29.3753 12.7188 30.5938C11.5003 31.8123 9.84825 32.4979 8.125 32.5ZM8.125 22.75C7.48221 22.75 6.85386 22.9406 6.3194 23.2977C5.78494 23.6548 5.36838 24.1624 5.12239 24.7563C4.87641 25.3501 4.81205 26.0036 4.93745 26.634C5.06285 27.2645 5.37239 27.8436 5.82691 28.2981C6.28143 28.7526 6.86052 29.0622 7.49096 29.1876C8.1214 29.313 8.77486 29.2486 9.36872 29.0026C9.96258 28.7566 10.4702 28.3401 10.8273 27.8056C11.1844 27.2711 11.375 26.6428 11.375 26C11.3741 25.1383 11.0315 24.3122 10.4221 23.7029C9.81284 23.0935 8.98669 22.7509 8.125 22.75ZM16.25 50.375C14.9644 50.375 13.7077 49.9938 12.6388 49.2796C11.5699 48.5653 10.7368 47.5502 10.2448 46.3624C9.75282 45.1747 9.62409 43.8678 9.8749 42.6069C10.1257 41.346 10.7448 40.1879 11.6538 39.2788C12.5628 38.3698 13.721 37.7507 14.9819 37.4999C16.2428 37.2491 17.5497 37.3778 18.7374 37.8698C19.9252 38.3618 20.9403 39.1949 21.6546 40.2638C22.3688 41.3327 22.75 42.5894 22.75 43.875C22.7479 45.5983 22.0623 47.2503 20.8438 48.4688C19.6253 49.6873 17.9732 50.3729 16.25 50.375ZM16.25 40.625C15.6072 40.625 14.9789 40.8156 14.4444 41.1727C13.9099 41.5298 13.4934 42.0374 13.2474 42.6313C13.0014 43.2251 12.937 43.8786 13.0625 44.509C13.1879 45.1395 13.4974 45.7186 13.9519 46.1731C14.4064 46.6276 14.9855 46.9372 15.616 47.0626C16.2464 47.188 16.8999 47.1236 17.4937 46.8776C18.0876 46.6316 18.5952 46.2151 18.9523 45.6806C19.3094 45.1461 19.5 44.5178 19.5 43.875C19.4991 43.0133 19.1565 42.1872 18.5471 41.5779C17.9378 40.9685 17.1117 40.6259 16.25 40.625ZM35.75 50.375C34.4644 50.375 33.2077 49.9938 32.1388 49.2796C31.0699 48.5653 30.2368 47.5502 29.7448 46.3624C29.2528 45.1747 29.1241 43.8678 29.3749 42.6069C29.6257 41.346 30.2448 40.1879 31.1538 39.2788C32.0629 38.3698 33.221 37.7507 34.4819 37.4999C35.7428 37.2491 37.0497 37.3778 38.2374 37.8698C39.4252 38.3618 40.4403 39.1949 41.1546 40.2638C41.8688 41.3327 42.25 42.5894 42.25 43.875C42.2479 45.5983 41.5623 47.2503 40.3438 48.4688C39.1253 49.6873 37.4733 50.3729 35.75 50.375ZM35.75 40.625C35.1072 40.625 34.4789 40.8156 33.9444 41.1727C33.4099 41.5298 32.9934 42.0374 32.7474 42.6313C32.5014 43.2251 32.437 43.8786 32.5625 44.509C32.6879 45.1395 32.9974 45.7186 33.4519 46.1731C33.9064 46.6276 34.4855 46.9372 35.116 47.0626C35.7464 47.188 36.3999 47.1236 36.9937 46.8776C37.5876 46.6316 38.0952 46.2151 38.4523 45.6806C38.8094 45.1461 39 44.5178 39 43.875C38.9991 43.0133 38.6565 42.1872 38.0471 41.5779C37.4378 40.9685 36.6117 40.6259 35.75 40.625ZM43.875 32.5C42.5894 32.5 41.3327 32.1188 40.2638 31.4046C39.1949 30.6903 38.3618 29.6752 37.8698 28.4874C37.3778 27.2997 37.2491 25.9928 37.4999 24.7319C37.7507 23.471 38.3698 22.3129 39.2788 21.4038C40.1879 20.4948 41.346 19.8757 42.6069 19.6249C43.8678 19.3741 45.1747 19.5028 46.3624 19.9948C47.5502 20.4868 48.5653 21.3199 49.2796 22.3888C49.9938 23.4577 50.375 24.7144 50.375 26C50.3729 27.7232 49.6873 29.3753 48.4688 30.5938C47.2503 31.8123 45.5983 32.4979 43.875 32.5ZM43.875 22.75C43.2322 22.75 42.6039 22.9406 42.0694 23.2977C41.5349 23.6548 41.1184 24.1624 40.8724 24.7563C40.6264 25.3501 40.562 26.0036 40.6875 26.634C40.8129 27.2645 41.1224 27.8436 41.5769 28.2981C42.0314 28.7526 42.6105 29.0622 43.241 29.1876C43.8714 29.313 44.5249 29.2486 45.1187 29.0026C45.7126 28.7566 46.2202 28.3401 46.5773 27.8056C46.9344 27.2711 47.125 26.6428 47.125 26C47.1241 25.1383 46.7815 24.3122 46.1721 23.7029C45.5628 23.0935 44.7367 22.7509 43.875 22.75ZM35.75 14.625C34.4644 14.625 33.2077 14.2438 32.1388 13.5296C31.0699 12.8153 30.2368 11.8002 29.7448 10.6124C29.2528 9.42473 29.1241 8.11779 29.3749 6.85692C29.6257 5.59604 30.2448 4.43785 31.1538 3.52881C32.0629 2.61977 33.221 2.0007 34.4819 1.7499C35.7428 1.49909 37.0497 1.62782 38.2374 2.11979C39.4252 2.61176 40.4403 3.44488 41.1546 4.5138C41.8688 5.58272 42.25 6.83942 42.25 8.125C42.2479 9.84825 41.5623 11.5003 40.3438 12.7188C39.1253 13.9373 37.4733 14.6229 35.75 14.625ZM35.75 4.875C35.1072 4.875 34.4789 5.06561 33.9444 5.42273C33.4099 5.77984 32.9934 6.28742 32.7474 6.88128C32.5014 7.47514 32.437 8.12861 32.5625 8.75905C32.6879 9.38948 32.9974 9.96858 33.4519 10.4231C33.9064 10.8776 34.4855 11.1872 35.116 11.3126C35.7464 11.438 36.3999 11.3736 36.9937 11.1276C37.5876 10.8816 38.0952 10.4651 38.4523 9.93061C38.8094 9.39615 39 8.76779 39 8.125C38.9991 7.26331 38.6565 6.43716 38.0471 5.82786C37.4378 5.21855 36.6117 4.87586 35.75 4.875ZM16.25 14.625C14.9644 14.625 13.7077 14.2438 12.6388 13.5296C11.5699 12.8153 10.7368 11.8002 10.2448 10.6124C9.75282 9.42473 9.62409 8.11779 9.8749 6.85692C10.1257 5.59604 10.7448 4.43785 11.6538 3.52881C12.5628 2.61977 13.721 2.0007 14.9819 1.7499C16.2428 1.49909 17.5497 1.62782 18.7374 2.11979C19.9252 2.61176 20.9403 3.44488 21.6546 4.5138C22.3688 5.58272 22.75 6.83942 22.75 8.125C22.7479 9.84825 22.0623 11.5003 20.8438 12.7188C19.6253 13.9373 17.9732 14.6229 16.25 14.625ZM16.25 4.875C15.6072 4.875 14.9789 5.06561 14.4444 5.42273C13.9099 5.77984 13.4934 6.28742 13.2474 6.88128C13.0014 7.47514 12.937 8.12861 13.0625 8.75905C13.1879 9.38948 13.4974 9.96858 13.9519 10.4231C14.4064 10.8776 14.9855 11.1872 15.616 11.3126C16.2464 11.438 16.8999 11.3736 17.4937 11.1276C18.0876 10.8816 18.5952 10.4651 18.9523 9.93061C19.3094 9.39615 19.5 8.76779 19.5 8.125C19.4991 7.26331 19.1565 6.43716 18.5471 5.82786C17.9378 5.21855 17.1117 4.87586 16.25 4.875Z" fill="#FC9B1C"/>
</g>
</svg>
