<svg width="50" height="50" viewBox="0 0 50 50" fill="none" xmlns="http://www.w3.org/2000/svg">
<g id="streamline:happy-face" clip-path="url(#clip0_206_23)">
<g id="Group">
<path id="Vector" d="M25 48.2142C31.1568 48.2142 37.0615 45.7684 41.415 41.4149C45.7685 37.0614 48.2143 31.1567 48.2143 24.9999C48.2143 18.8431 45.7685 12.9385 41.415 8.58495C37.0615 4.23143 31.1568 1.78564 25 1.78564C18.8432 1.78564 12.9385 4.23143 8.58502 8.58495C4.2315 12.9385 1.78571 18.8431 1.78571 24.9999C1.78571 31.1567 4.2315 37.0614 8.58502 41.4149C12.9385 45.7684 18.8432 48.2142 25 48.2142Z" stroke="#FC9B1D" stroke-width="4" stroke-linecap="round" stroke-linejoin="round"/>
<path id="Vector_2" d="M13.2143 28.5715C15 35 22.1429 38.9286 28.5714 37.1429C32.5 35.7143 35.7143 32.5 36.7857 28.5715M16.9643 19.6429C16.7275 19.6429 16.5004 19.5488 16.3329 19.3814C16.1655 19.2139 16.0714 18.9868 16.0714 18.75C16.0714 18.5132 16.1655 18.2861 16.3329 18.1187C16.5004 17.9512 16.7275 17.8572 16.9643 17.8572C17.2011 17.8572 17.4282 17.9512 17.5956 18.1187C17.7631 18.2861 17.8571 18.5132 17.8571 18.75C17.8571 18.9868 17.7631 19.2139 17.5956 19.3814C17.4282 19.5488 17.2011 19.6429 16.9643 19.6429ZM33.0357 19.6429C32.7989 19.6429 32.5718 19.5488 32.4044 19.3814C32.2369 19.2139 32.1428 18.9868 32.1428 18.75C32.1428 18.5132 32.2369 18.2861 32.4044 18.1187C32.5718 17.9512 32.7989 17.8572 33.0357 17.8572C33.2725 17.8572 33.4996 17.9512 33.6671 18.1187C33.8345 18.2861 33.9286 18.5132 33.9286 18.75C33.9286 18.9868 33.8345 19.2139 33.6671 19.3814C33.4996 19.5488 33.2725 19.6429 33.0357 19.6429Z" stroke="#FC9B1D" stroke-width="4" stroke-linecap="round" stroke-linejoin="round"/>
</g>
</g>
<defs>
<clipPath id="clip0_206_23">
<rect width="50" height="50" fill="white"/>
</clipPath>
</defs>
</svg>
